<svg width="694" height="104" viewBox="0 0 694 104" fill="none" xmlns="http://www.w3.org/2000/svg">
<g opacity="0.3">
<path d="M63.5078 88L57.2969 67.6094L26.0664 67.6094L19.8555 88H0.285156L30.5195 1.98437L52.7266 1.98437L83.0781 88H63.5078ZM52.9609 52.375L46.75 32.4531C46.3594 31.125 45.832 29.4258 45.168 27.3555C44.543 25.2461 43.8984 23.1172 43.2344 20.9687C42.6094 18.7812 42.1016 16.8867 41.7109 15.2852C41.3203 16.8867 40.7734 18.8789 40.0703 21.2617C39.4063 23.6055 38.7617 25.832 38.1367 27.9414C37.5117 30.0508 37.0625 31.5547 36.7891 32.4531L30.6367 52.375L52.9609 52.375ZM161.125 2.33594L132.004 88H112.199L83.1367 2.33594L101.477 2.33594L117.59 53.3125C117.863 54.1719 118.313 55.793 118.938 58.1758C119.563 60.5195 120.188 63.0195 120.813 65.6758C121.477 68.293 121.926 70.4609 122.16 72.1797C122.395 70.4609 122.805 68.293 123.391 65.6758C124.016 63.0586 124.621 60.5781 125.207 58.2344C125.832 55.8516 126.281 54.2109 126.555 53.3125L142.785 2.33594L161.125 2.33594ZM221.301 88L171.965 88L171.965 2.33594L221.301 2.33594V17.2187L190.129 17.2187V36.0273L219.133 36.0273V50.9102H190.129L190.129 73L221.301 73V88ZM275.617 16.2227C272.141 16.2227 269.055 16.9062 266.359 18.2734C263.703 19.6016 261.457 21.5352 259.621 24.0742C257.824 26.6133 256.457 29.6797 255.52 33.2734C254.582 36.8672 254.113 40.9102 254.113 45.4023C254.113 51.457 254.855 56.6328 256.34 60.9297C257.863 65.1875 260.207 68.4492 263.371 70.7148C266.535 72.9414 270.617 74.0547 275.617 74.0547C279.094 74.0547 282.57 73.6641 286.047 72.8828C289.562 72.1016 293.371 70.9883 297.473 69.543V84.7773C293.684 86.3398 289.953 87.4531 286.281 88.1172C282.609 88.8203 278.488 89.1719 273.918 89.1719C265.09 89.1719 257.824 87.3555 252.121 83.7227C246.457 80.0508 242.258 74.9336 239.523 68.3711C236.789 61.7695 235.422 54.0742 235.422 45.2852C235.422 38.8008 236.301 32.8633 238.059 27.4727C239.816 22.082 242.395 17.4141 245.793 13.4687C249.191 9.52344 253.391 6.47656 258.391 4.32812C263.391 2.17969 269.133 1.10547 275.617 1.10547C279.875 1.10547 284.133 1.65234 288.391 2.74609C292.688 3.80078 296.789 5.26562 300.695 7.14062L294.836 21.9062C291.633 20.3828 288.41 19.0547 285.168 17.9219C281.926 16.7891 278.742 16.2227 275.617 16.2227ZM414.133 2.33594L385.012 88H365.207L336.145 2.33594L354.484 2.33594L370.598 53.3125C370.871 54.1719 371.32 55.793 371.945 58.1758C372.57 60.5195 373.195 63.0195 373.82 65.6758C374.484 68.293 374.934 70.4609 375.168 72.1797C375.402 70.4609 375.812 68.293 376.398 65.6758C377.023 63.0586 377.629 60.5781 378.215 58.2344C378.84 55.8516 379.289 54.2109 379.562 53.3125L395.793 2.33594L414.133 2.33594ZM502.727 45.0508C502.727 51.6523 501.906 57.668 500.266 63.0977C498.625 68.4883 496.125 73.1367 492.766 77.043C489.445 80.9492 485.227 83.957 480.109 86.0664C474.992 88.1367 468.938 89.1719 461.945 89.1719C454.953 89.1719 448.898 88.1367 443.781 86.0664C438.664 83.957 434.426 80.9492 431.066 77.043C427.746 73.1367 425.266 68.4687 423.625 63.0391C421.984 57.6094 421.164 51.5742 421.164 44.9336C421.164 36.0664 422.609 28.3516 425.5 21.7891C428.43 15.1875 432.922 10.0703 438.977 6.4375C445.031 2.80469 452.727 0.988281 462.062 0.988281C471.359 0.988281 478.996 2.80469 484.973 6.4375C490.988 10.0703 495.441 15.1875 498.332 21.7891C501.262 28.3906 502.727 36.1445 502.727 45.0508ZM440.207 45.0508C440.207 51.0273 440.949 56.1836 442.434 60.5195C443.957 64.8164 446.32 68.1367 449.523 70.4805C452.727 72.7852 456.867 73.9375 461.945 73.9375C467.102 73.9375 471.281 72.7852 474.484 70.4805C477.688 68.1367 480.012 64.8164 481.457 60.5195C482.941 56.1836 483.684 51.0273 483.684 45.0508C483.684 36.0664 482.004 28.9961 478.645 23.8398C475.285 18.6836 469.758 16.1055 462.062 16.1055C456.945 16.1055 452.766 17.2773 449.523 19.6211C446.32 21.9258 443.957 25.2461 442.434 29.582C440.949 33.8789 440.207 39.0352 440.207 45.0508ZM590.207 2.33594V57.7656C590.207 63.6641 588.898 68.9961 586.281 73.7617C583.703 78.4883 579.777 82.2383 574.504 85.0117C569.27 87.7852 562.668 89.1719 554.699 89.1719C543.371 89.1719 534.738 86.2812 528.801 80.5C522.863 74.7187 519.895 67.0625 519.895 57.5312V2.33594H538V54.7773C538 61.8477 539.445 66.8086 542.336 69.6602C545.227 72.5117 549.504 73.9375 555.168 73.9375C559.152 73.9375 562.375 73.2539 564.836 71.8867C567.336 70.5195 569.172 68.4102 570.344 65.5586C571.516 62.707 572.102 59.0742 572.102 54.6602V2.33594L590.207 2.33594ZM661.75 64.2109C661.75 69.2891 660.52 73.7031 658.059 77.4531C655.598 81.2031 652.004 84.0937 647.277 86.125C642.59 88.1562 636.887 89.1719 630.168 89.1719C627.199 89.1719 624.289 88.9766 621.438 88.5859C618.625 88.1953 615.91 87.6289 613.293 86.8867C610.715 86.1055 608.254 85.1484 605.91 84.0156V67.1406C609.973 68.9375 614.191 70.5586 618.566 72.0039C622.941 73.4492 627.277 74.1719 631.574 74.1719C634.543 74.1719 636.926 73.7812 638.723 73C640.559 72.2187 641.887 71.1445 642.707 69.7773C643.527 68.4102 643.938 66.8477 643.938 65.0898C643.938 62.9414 643.215 61.1055 641.77 59.582C640.324 58.0586 638.332 56.6328 635.793 55.3047C633.293 53.9766 630.461 52.5508 627.297 51.0273C625.305 50.0898 623.137 48.957 620.793 47.6289C618.449 46.2617 616.223 44.6016 614.113 42.6484C612.004 40.6953 610.266 38.332 608.898 35.5586C607.57 32.7461 606.906 29.3867 606.906 25.4805C606.906 20.3633 608.078 15.9883 610.422 12.3555C612.766 8.72266 616.105 5.94922 620.441 4.03516C624.816 2.08203 629.973 1.10547 635.91 1.10547C640.363 1.10547 644.602 1.63281 648.625 2.6875C652.688 3.70312 656.926 5.1875 661.34 7.14062L655.48 21.2617C651.535 19.6602 648 18.4297 644.875 17.5703C641.75 16.6719 638.566 16.2227 635.324 16.2227C633.059 16.2227 631.125 16.5937 629.523 17.3359C627.922 18.0391 626.711 19.0547 625.891 20.3828C625.07 21.6719 624.66 23.1758 624.66 24.8945C624.66 26.9258 625.246 28.6445 626.418 30.0508C627.629 31.418 629.426 32.7461 631.809 34.0352C634.23 35.3242 637.238 36.8281 640.832 38.5469C645.207 40.6172 648.938 42.7852 652.023 45.0508C655.148 47.2773 657.551 49.9141 659.23 52.9609C660.91 55.9687 661.75 59.7187 661.75 64.2109ZM692.512 74.0547L693.391 75.4023C692.688 78.2148 691.77 81.2422 690.637 84.4844C689.543 87.7266 688.332 90.9687 687.004 94.2109C685.715 97.4531 684.406 100.539 683.078 103.469H670.188C670.969 100.305 671.73 96.9844 672.473 93.5078C673.215 90.0312 673.898 86.6133 674.523 83.2539C675.188 79.8945 675.715 76.8281 676.105 74.0547H692.512Z" fill="white"/>
<path d="M63.5078 88L62.5512 88.2914L62.767 89H63.5078V88ZM57.2969 67.6094L58.2535 67.318L58.0376 66.6094H57.2969V67.6094ZM26.0664 67.6094V66.6094H25.3256L25.1098 67.318L26.0664 67.6094ZM19.8555 88V89H20.5962L20.8121 88.2914L19.8555 88ZM0.285156 88L-0.65826 87.6684L-1.12632 89H0.285156L0.285156 88ZM30.5195 1.98437V0.984375H29.8111L29.5761 1.65277L30.5195 1.98437ZM52.7266 1.98437L53.6696 1.65162L53.4341 0.984375H52.7266V1.98437ZM83.0781 88V89H84.4914L84.0211 87.6672L83.0781 88ZM52.9609 52.375V53.375H54.3202L53.9156 52.0774L52.9609 52.375ZM46.75 32.4531L45.7906 32.7353L45.7929 32.743L45.7953 32.7508L46.75 32.4531ZM45.168 27.3555L44.2092 27.6396L44.2123 27.6503L44.2158 27.6609L45.168 27.3555ZM43.2344 20.9687L42.2729 21.2435L42.2758 21.2538L42.279 21.2641L43.2344 20.9687ZM41.7109 15.2852L42.6825 15.0482H40.7394L41.7109 15.2852ZM40.0703 21.2617L39.1111 20.9787L39.1082 20.9891L40.0703 21.2617ZM36.7891 32.4531L37.7445 32.7482L37.7457 32.7443L36.7891 32.4531ZM30.6367 52.375L29.6812 52.0799L29.2813 53.375H30.6367L30.6367 52.375ZM64.4644 87.7086L58.2535 67.318L56.3403 67.9008L62.5512 88.2914L64.4644 87.7086ZM57.2969 66.6094L26.0664 66.6094V68.6094L57.2969 68.6094V66.6094ZM25.1098 67.318L18.8989 87.7086L20.8121 88.2914L27.023 67.9008L25.1098 67.318ZM19.8555 87H0.285156L0.285156 89H19.8555V87ZM1.22857 88.3316L31.4629 2.31598L29.5761 1.65277L-0.65826 87.6684L1.22857 88.3316ZM30.5195 2.98437L52.7266 2.98437V0.984375L30.5195 0.984375V2.98437ZM51.7835 2.31713L82.1351 88.3328L84.0211 87.6672L53.6696 1.65162L51.7835 2.31713ZM83.0781 87H63.5078V89H83.0781V87ZM53.9156 52.0774L47.7047 32.1555L45.7953 32.7508L52.0063 52.6726L53.9156 52.0774ZM47.7094 32.171C47.3155 30.832 46.7855 29.1243 46.1202 27.05L44.2158 27.6609C44.8786 29.7273 45.4032 31.418 45.7906 32.7353L47.7094 32.171ZM46.1268 27.0714C45.5006 24.9582 44.855 22.8255 44.1898 20.6734L42.279 21.2641C42.9419 23.4088 43.5853 25.534 44.2092 27.6396L46.1268 27.0714ZM44.1959 20.694C43.5732 18.5147 43.0691 16.6334 42.6825 15.0482L40.7394 15.5221C41.134 17.14 41.6455 19.0478 42.2729 21.2435L44.1959 20.694ZM40.7394 15.0482C40.3539 16.6287 39.8118 18.6043 39.1112 20.9787L41.0294 21.5447C41.735 19.1535 42.2867 17.1447 42.6825 15.5221L40.7394 15.0482ZM39.1082 20.9891C38.4451 23.3294 37.8017 25.5521 37.1779 27.6573L39.0955 28.2255C39.7218 26.1119 40.3674 23.8815 41.0324 21.5343L39.1082 20.9891ZM37.1779 27.6573C36.5529 29.7666 36.1046 31.2674 35.8324 32.162L37.7457 32.7443C38.0204 31.842 38.4705 30.335 39.0955 28.2255L37.1779 27.6573ZM35.8336 32.1581L29.6812 52.0799L31.5922 52.6701L37.7445 32.7482L35.8336 32.1581ZM30.6367 53.375L52.9609 53.375V51.375L30.6367 51.375L30.6367 53.375ZM161.125 2.33594L162.072 2.65779L162.521 1.33594H161.125V2.33594ZM132.004 88V89L132.72 89L132.951 88.3219L132.004 88ZM112.199 88L111.252 88.3213L111.482 89H112.199V88ZM83.1367 2.33594V1.33594H81.7415L82.1897 2.65721L83.1367 2.33594ZM101.477 2.33594L102.43 2.03454L102.209 1.33594H101.477V2.33594ZM117.59 53.3125L116.636 53.6139L116.637 53.6157L117.59 53.3125ZM118.938 58.1758L117.97 58.4295L117.971 58.4334L118.938 58.1758ZM120.813 65.6758L119.839 65.9048L119.841 65.9133L119.843 65.9217L120.813 65.6758ZM122.16 72.1797L121.169 72.3148H123.151L122.16 72.1797ZM123.391 65.6758L122.418 65.4435L122.416 65.4504L122.415 65.4573L123.391 65.6758ZM125.207 58.2344L124.24 57.9806L124.237 57.9918L125.207 58.2344ZM126.555 53.3125L125.602 53.0091L125.598 53.0213L126.555 53.3125ZM142.785 2.33594V1.33594H142.054L141.832 2.03255L142.785 2.33594ZM160.178 2.01408L131.057 87.6781L132.951 88.3219L162.072 2.65779L160.178 2.01408ZM132.004 87H112.199V89H132.004V87ZM113.146 87.6787L84.0837 2.01466L82.1897 2.65721L111.252 88.3213L113.146 87.6787ZM83.1367 3.33594L101.477 3.33594V1.33594L83.1367 1.33594V3.33594ZM100.523 2.63733L116.636 53.6139L118.543 53.0111L102.43 2.03454L100.523 2.63733ZM116.637 53.6157C116.901 54.447 117.345 56.0443 117.97 58.4295L119.905 57.9221C119.28 55.5416 118.825 53.8967 118.543 53.0093L116.637 53.6157ZM117.971 58.4334C118.593 60.7666 119.216 63.257 119.839 65.9048L121.786 65.4467C121.159 62.7821 120.532 60.2725 119.904 57.9181L117.971 58.4334ZM119.843 65.9217C120.502 68.5201 120.942 70.6479 121.169 72.3148L123.151 72.0446C122.91 70.274 122.451 68.0659 121.782 65.4298L119.843 65.9217ZM123.151 72.3148C123.38 70.6348 123.784 68.497 124.366 65.8943L122.415 65.4573C121.826 68.0889 121.409 70.2871 121.169 72.0446L123.151 72.3148ZM124.363 65.9081C124.988 63.2939 125.592 60.8169 126.177 58.4769L124.237 57.9918C123.65 60.3394 123.044 62.8233 122.418 65.4435L124.363 65.9081ZM126.174 58.4881C126.8 56.1041 127.244 54.4811 127.511 53.6037L125.598 53.0213C125.318 53.9408 124.864 55.5991 124.24 57.9807L126.174 58.4881ZM127.508 53.6159L143.738 2.63932L141.832 2.03255L125.602 53.0091L127.508 53.6159ZM142.785 3.33594L161.125 3.33594V1.33594L142.785 1.33594V3.33594ZM221.301 88V89H222.301V88H221.301ZM171.965 88H170.965V89H171.965V88ZM171.965 2.33594V1.33594H170.965V2.33594H171.965ZM221.301 2.33594H222.301V1.33594H221.301V2.33594ZM221.301 17.2187V18.2187H222.301V17.2187H221.301ZM190.129 17.2187V16.2187H189.129V17.2187H190.129ZM190.129 36.0273H189.129V37.0273H190.129V36.0273ZM219.133 36.0273H220.133V35.0273H219.133V36.0273ZM219.133 50.9102V51.9102H220.133V50.9102H219.133ZM190.129 50.9102V49.9102H189.129V50.9102H190.129ZM190.129 73H189.129V74H190.129V73ZM221.301 73H222.301V72H221.301V73ZM221.301 87L171.965 87V89L221.301 89V87ZM172.965 88L172.965 2.33594H170.965L170.965 88H172.965ZM171.965 3.33594L221.301 3.33594V1.33594L171.965 1.33594V3.33594ZM220.301 2.33594V17.2187H222.301V2.33594H220.301ZM221.301 16.2187L190.129 16.2187V18.2187L221.301 18.2187V16.2187ZM189.129 17.2187V36.0273H191.129V17.2187H189.129ZM190.129 37.0273L219.133 37.0273V35.0273L190.129 35.0273V37.0273ZM218.133 36.0273V50.9102H220.133V36.0273H218.133ZM219.133 49.9102H190.129V51.9102H219.133V49.9102ZM189.129 50.9102L189.129 73H191.129L191.129 50.9102H189.129ZM190.129 74L221.301 74V72L190.129 72V74ZM220.301 73V88L222.301 88V73L220.301 73ZM266.359 18.2734L266.807 19.1679L266.812 19.1653L266.359 18.2734ZM259.621 24.0742L258.811 23.4882L258.805 23.4965L259.621 24.0742ZM256.34 60.9297L255.395 61.2562L255.398 61.2666L256.34 60.9297ZM263.371 70.7148L262.789 71.5279L262.796 71.5327L263.371 70.7148ZM286.047 72.8828L285.83 71.9066L285.828 71.9071L286.047 72.8828ZM297.473 69.543H298.473V68.1303L297.14 68.5998L297.473 69.543ZM297.473 84.7773L297.854 85.7018L298.473 85.4467V84.7773H297.473ZM286.281 88.1172L286.103 87.1331L286.093 87.135L286.281 88.1172ZM252.121 83.7227L251.577 84.5618L251.584 84.5661L252.121 83.7227ZM239.523 68.3711L238.6 68.7538L238.6 68.7557L239.523 68.3711ZM288.391 2.74609L288.142 3.7147L288.152 3.71727L288.391 2.74609ZM300.695 7.14062L301.625 7.50947L301.969 6.64265L301.128 6.2391L300.695 7.14062ZM294.836 21.9062L294.406 22.8093L295.371 23.2682L295.765 22.2751L294.836 21.9062ZM275.617 15.2227C272.007 15.2227 268.762 15.9333 265.907 17.3816L266.812 19.1653C269.347 17.8792 272.274 17.2227 275.617 17.2227V15.2227ZM265.912 17.379C263.104 18.7832 260.736 20.826 258.811 23.4883L260.431 24.6602C262.178 22.2443 264.302 20.4199 266.807 19.1679L265.912 17.379ZM258.805 23.4965C256.926 26.1511 255.514 29.3327 254.552 33.021L256.487 33.5259C257.4 30.0267 258.722 27.0755 260.437 24.6519L258.805 23.4965ZM254.552 33.021C253.589 36.7123 253.113 40.8421 253.113 45.4023H255.113C255.113 40.9782 255.575 37.0221 256.487 33.5259L254.552 33.021ZM253.113 45.4023C253.113 51.5336 253.864 56.8259 255.395 61.2562L257.285 60.6032C255.847 56.4397 255.113 51.3805 255.113 45.4023H253.113ZM255.398 61.2666C256.979 65.684 259.434 69.1255 262.789 71.5279L263.953 69.9018C260.98 67.773 258.748 64.691 257.281 60.5928L255.398 61.2666ZM262.796 71.5327C266.171 73.9082 270.471 75.0547 275.617 75.0547V73.0547C270.763 73.0547 266.899 71.9746 263.947 69.897L262.796 71.5327ZM275.617 75.0547C279.169 75.0547 282.719 74.6555 286.266 73.8585L285.828 71.9071C282.421 72.6726 279.018 73.0547 275.617 73.0547V75.0547ZM286.264 73.859C289.826 73.0675 293.673 71.9421 297.805 70.4861L297.14 68.5998C293.069 70.0344 289.299 71.1356 285.83 71.9066L286.264 73.859ZM296.473 69.543V84.7773H298.473V69.543H296.473ZM297.091 83.8529C293.361 85.391 289.699 86.4829 286.103 87.1332L286.459 89.1012C290.207 88.4234 294.006 87.2887 297.854 85.7018L297.091 83.8529ZM286.093 87.135C282.495 87.824 278.439 88.1719 273.918 88.1719V90.1719C278.538 90.1719 282.724 89.8166 286.469 89.0993L286.093 87.135ZM273.918 88.1719C265.223 88.1719 258.159 86.3829 252.658 82.8792L251.584 84.5661C257.49 88.328 264.957 90.1719 273.918 90.1719V88.1719ZM252.665 82.8836C247.18 79.3275 243.108 74.3732 240.447 67.9865L238.6 68.7557C241.408 75.494 245.734 80.7741 251.577 84.5618L252.665 82.8836ZM240.447 67.9884C237.773 61.5326 236.422 53.9722 236.422 45.2852H234.422C234.422 54.1762 235.805 62.0064 238.6 68.7538L240.447 67.9884ZM236.422 45.2852C236.422 38.8912 237.288 33.06 239.009 27.7827L237.108 27.1626C235.313 32.6666 234.422 38.7103 234.422 45.2852H236.422ZM239.009 27.7827C240.73 22.5066 243.246 17.9578 246.551 14.1214L245.035 12.8161C241.543 16.8703 238.903 21.6574 237.108 27.1626L239.009 27.7827ZM246.551 14.1214C249.845 10.2964 253.919 7.33813 258.785 5.2469L257.996 3.40935C252.863 5.615 248.537 8.75044 245.035 12.8161L246.551 14.1214ZM258.785 5.2469C263.639 3.16129 269.243 2.10547 275.617 2.10547V0.105469C269.023 0.105469 263.142 1.19808 257.996 3.40935L258.785 5.2469ZM275.617 2.10547C279.788 2.10547 283.963 2.6411 288.142 3.71465L288.639 1.77754C284.303 0.663589 279.962 0.105469 275.617 0.105469V2.10547ZM288.152 3.71727C292.384 4.75585 296.42 6.19763 300.263 8.04215L301.128 6.2391C297.158 4.33362 292.991 2.84571 288.629 1.77492L288.152 3.71727ZM299.766 6.77178L293.906 21.5374L295.765 22.2751L301.625 7.50947L299.766 6.77178ZM295.265 21.0032C292.031 19.4648 288.775 18.1229 285.498 16.9778L284.838 18.8659C288.045 19.9865 291.235 21.3008 294.406 22.8093L295.265 21.0032ZM285.498 16.9778C282.16 15.8116 278.865 15.2227 275.617 15.2227V17.2227C278.619 17.2227 281.692 17.7665 284.838 18.8659L285.498 16.9778ZM414.133 2.33594L415.08 2.65779L415.529 1.33594H414.133V2.33594ZM385.012 88V89H385.728L385.959 88.3219L385.012 88ZM365.207 88L364.26 88.3213L364.49 89H365.207V88ZM336.145 2.33594V1.33594H334.749L335.198 2.65721L336.145 2.33594ZM354.484 2.33594L355.438 2.03454L355.217 1.33594H354.484V2.33594ZM370.598 53.3125L369.644 53.6139L369.645 53.6157L370.598 53.3125ZM371.945 58.1758L370.978 58.4295L370.979 58.4334L371.945 58.1758ZM373.82 65.6758L372.847 65.9048L372.849 65.9133L372.851 65.9217L373.82 65.6758ZM375.168 72.1797L374.177 72.3148H376.159L375.168 72.1797ZM376.398 65.6758L375.426 65.4435L375.424 65.4504L375.423 65.4573L376.398 65.6758ZM378.215 58.2344L377.247 57.9806L377.245 57.9918L378.215 58.2344ZM379.562 53.3125L378.61 53.0091L378.606 53.0213L379.562 53.3125ZM395.793 2.33594V1.33594H395.062L394.84 2.03255L395.793 2.33594ZM413.186 2.01408L384.065 87.6781L385.959 88.3219L415.08 2.65779L413.186 2.01408ZM385.012 87H365.207V89H385.012V87ZM366.154 87.6787L337.092 2.01466L335.198 2.65721L364.26 88.3213L366.154 87.6787ZM336.145 3.33594L354.484 3.33594V1.33594L336.145 1.33594V3.33594ZM353.531 2.63733L369.644 53.6139L371.551 53.0111L355.438 2.03454L353.531 2.63733ZM369.645 53.6157C369.909 54.447 370.352 56.0443 370.978 58.4295L372.913 57.9221C372.288 55.5416 371.833 53.8967 371.551 53.0093L369.645 53.6157ZM370.979 58.4334C371.601 60.7666 372.224 63.257 372.847 65.9048L374.794 65.4467C374.167 62.7821 373.539 60.2725 372.912 57.9181L370.979 58.4334ZM372.851 65.9217C373.51 68.5201 373.95 70.6479 374.177 72.3148L376.159 72.0446C375.917 70.274 375.458 68.0659 374.79 65.4298L372.851 65.9217ZM376.159 72.3148C376.388 70.6348 376.792 68.497 377.374 65.8943L375.423 65.4573C374.833 68.0889 374.417 70.2871 374.177 72.0446L376.159 72.3148ZM377.371 65.9081C377.995 63.2939 378.6 60.8169 379.185 58.4769L377.245 57.9918C376.658 60.3394 376.052 62.8233 375.426 65.4435L377.371 65.9081ZM379.182 58.4881C379.807 56.1041 380.252 54.4811 380.519 53.6037L378.606 53.0213C378.326 53.9408 377.872 55.5991 377.248 57.9807L379.182 58.4881ZM380.515 53.6159L396.746 2.63932L394.84 2.03255L378.61 53.0091L380.515 53.6159ZM395.793 3.33594L414.133 3.33594V1.33594L395.793 1.33594V3.33594ZM500.266 63.0977L501.222 63.3888L501.223 63.3869L500.266 63.0977ZM492.766 77.043L492.007 76.3909L492.004 76.3953L492.766 77.043ZM480.109 86.0664L480.484 86.9934L480.49 86.9909L480.109 86.0664ZM443.781 86.0664L443.4 86.991L443.406 86.9934L443.781 86.0664ZM431.066 77.043L430.304 77.6906L430.308 77.695L431.066 77.043ZM425.5 21.7891L424.586 21.3834L424.585 21.386L425.5 21.7891ZM484.973 6.4375L484.453 7.29203L484.456 7.29352L484.973 6.4375ZM498.332 21.7891L497.416 22.1902L497.418 22.1947L498.332 21.7891ZM442.434 60.5195L441.487 60.8434L441.491 60.8537L442.434 60.5195ZM449.523 70.4805L448.933 71.2875L448.939 71.2922L449.523 70.4805ZM474.484 70.4805L475.068 71.2922L475.075 71.2875L474.484 70.4805ZM481.457 60.5195L480.511 60.1956L480.509 60.2007L481.457 60.5195ZM478.645 23.8398L477.807 24.3857L478.645 23.8398ZM449.523 19.6211L450.107 20.4328L450.109 20.4315L449.523 19.6211ZM442.434 29.582L441.49 29.2505L441.488 29.2555L442.434 29.582ZM501.727 45.0508C501.727 51.57 500.916 57.4864 499.308 62.8084L501.223 63.3869C502.896 57.8495 503.727 51.7347 503.727 45.0508H501.727ZM499.309 62.8065C497.705 68.0769 495.268 72.5994 492.007 76.3909L493.524 77.695C496.982 73.674 499.545 68.8997 501.222 63.3888L499.309 62.8065ZM492.004 76.3953C488.795 80.1708 484.71 83.0882 479.728 85.1419L480.49 86.9909C485.743 84.8258 490.096 81.7277 493.528 77.6906L492.004 76.3953ZM479.734 85.1394C474.763 87.1505 468.842 88.1719 461.945 88.1719V90.1719C469.033 90.1719 475.221 89.1229 480.484 86.9934L479.734 85.1394ZM461.945 88.1719C455.049 88.1719 449.127 87.1505 444.156 85.1394L443.406 86.9934C448.67 89.1229 454.858 90.1719 461.945 90.1719V88.1719ZM444.162 85.1419C439.179 83.0879 435.074 80.1692 431.825 76.3909L430.308 77.695C433.778 81.7292 438.149 84.8262 443.4 86.9909L444.162 85.1419ZM431.828 76.3953C428.606 72.6045 426.187 68.062 424.582 62.7498L422.668 63.3283C424.344 68.8755 426.886 73.6689 430.304 77.6906L431.828 76.3953ZM424.582 62.7498C422.974 57.4283 422.164 51.4925 422.164 44.9336H420.164C420.164 51.6559 420.994 57.7904 422.668 63.3283L424.582 62.7498ZM422.164 44.9336C422.164 36.1733 423.592 28.6014 426.415 22.1922L424.585 21.386C421.627 28.1018 420.164 35.9595 420.164 44.9336H422.164ZM426.414 22.1947C429.262 15.7767 433.617 10.8193 439.491 7.29499L438.462 5.58001C432.227 9.32129 427.597 14.5983 424.586 21.3834L426.414 22.1947ZM439.491 7.29499C445.348 3.78087 452.851 1.98828 462.062 1.98828V-0.0117188C452.602 -0.0117188 444.715 1.82851 438.462 5.58001L439.491 7.29499ZM462.062 1.98828C471.235 1.98828 478.677 3.78081 484.453 7.29202L485.492 5.58298C479.315 1.82857 471.484 -0.0117188 462.062 -0.0117188V1.98828ZM484.456 7.29352C490.29 10.8167 494.606 15.7727 497.416 22.1902L499.248 21.388C496.277 14.6023 491.687 9.32395 485.49 5.58148L484.456 7.29352ZM497.418 22.1947C500.279 28.6424 501.727 36.2525 501.727 45.0508H503.727C503.727 36.0365 502.244 28.1388 499.246 21.3834L497.418 22.1947ZM439.207 45.0508C439.207 51.1059 439.958 56.377 441.487 60.8434L443.38 60.1956C441.94 55.9902 441.207 50.9488 441.207 45.0508H439.207ZM441.491 60.8537C443.071 65.311 445.544 68.8081 448.933 71.2875L450.114 69.6734C447.096 67.4653 444.843 64.3219 443.376 60.1854L441.491 60.8537ZM448.939 71.2922C452.356 73.7503 456.718 74.9375 461.945 74.9375V72.9375C457.017 72.9375 453.097 71.82 450.107 69.6687L448.939 71.2922ZM461.945 74.9375C467.247 74.9375 471.65 73.752 475.068 71.2922L473.9 69.6687C470.913 71.8183 466.956 72.9375 461.945 72.9375V74.9375ZM475.075 71.2875C478.468 68.805 480.903 65.3021 482.405 60.8383L480.509 60.2007C479.12 64.3307 476.907 67.4685 473.894 69.6734L475.075 71.2875ZM482.403 60.8434C483.932 56.377 484.684 51.1059 484.684 45.0508H482.684C482.684 50.9488 481.951 55.9902 480.511 60.1956L482.403 60.8434ZM484.684 45.0508C484.684 35.9569 482.986 28.6712 479.482 23.294L477.807 24.3857C481.022 29.321 482.684 36.1759 482.684 45.0508H484.684ZM479.482 23.294C475.891 17.7822 470 15.1055 462.062 15.1055V17.1055C469.516 17.1055 474.679 19.585 477.807 24.3857L479.482 23.294ZM462.062 15.1055C456.794 15.1055 452.392 16.3132 448.938 18.8107L450.109 20.4315C453.139 18.2415 457.097 17.1055 462.062 17.1055V15.1055ZM448.939 18.8094C445.544 21.2524 443.07 24.7542 441.49 29.2505L443.377 29.9135C444.844 25.7379 447.097 22.5992 450.107 20.4328L448.939 18.8094ZM441.488 29.2555C439.958 33.6852 439.207 38.9578 439.207 45.0508H441.207C441.207 39.1125 441.94 34.0726 443.379 29.9086L441.488 29.2555ZM590.207 2.33594H591.207V1.33594H590.207V2.33594ZM586.281 73.7617L585.405 73.2803L585.403 73.2829L586.281 73.7617ZM574.504 85.0117L574.038 84.1267L574.036 84.1281L574.504 85.0117ZM519.895 2.33594V1.33594L518.895 1.33594V2.33594L519.895 2.33594ZM538 2.33594H539V1.33594H538V2.33594ZM564.836 71.8867L564.356 71.0093L564.35 71.0126L564.836 71.8867ZM572.102 2.33594V1.33594H571.102V2.33594H572.102ZM589.207 2.33594V57.7656H591.207V2.33594H589.207ZM589.207 57.7656C589.207 63.5104 587.934 68.6746 585.405 73.2804L587.158 74.2431C589.863 69.3176 591.207 63.8177 591.207 57.7656H589.207ZM585.403 73.2829C582.93 77.8181 579.157 81.4348 574.038 84.1267L574.969 85.8968C580.398 83.0417 584.477 79.1585 587.159 74.2406L585.403 73.2829ZM574.036 84.1281C568.987 86.8033 562.559 88.1719 554.699 88.1719V90.1719C562.777 90.1719 569.552 88.767 574.972 85.8953L574.036 84.1281ZM554.699 88.1719C543.534 88.1719 535.189 85.3247 529.498 79.7835L528.103 81.2165C534.287 87.2378 543.208 90.1719 554.699 90.1719V88.1719ZM529.498 79.7835C523.784 74.2192 520.895 66.8368 520.895 57.5312H518.895C518.895 67.2882 521.943 75.2183 528.103 81.2165L529.498 79.7835ZM520.895 57.5312V2.33594L518.895 2.33594V57.5312H520.895ZM519.895 3.33594H538V1.33594H519.895V3.33594ZM537 2.33594V54.7773H539V2.33594H537ZM537 54.7773C537 61.9309 538.453 67.2339 541.634 70.3721L543.038 68.9483C540.438 66.3833 539 61.7644 539 54.7773H537ZM541.634 70.3721C544.775 73.4709 549.346 74.9375 555.168 74.9375V72.9375C549.661 72.9375 545.678 71.5525 543.038 68.9483L541.634 70.3721ZM555.168 74.9375C559.256 74.9375 562.663 74.2378 565.322 72.7609L564.35 71.0126C562.087 72.27 559.049 72.9375 555.168 72.9375V74.9375ZM565.316 72.7641C568.034 71.2777 570.017 68.9835 571.269 65.9387L569.419 65.1785C568.326 67.8368 566.638 69.7613 564.356 71.0093L565.316 72.7641ZM571.269 65.9387C572.507 62.9264 573.102 59.1528 573.102 54.6602H571.102C571.102 58.9957 570.525 62.4877 569.419 65.1785L571.269 65.9387ZM573.102 54.6602V2.33594H571.102V54.6602H573.102ZM572.102 3.33594L590.207 3.33594V1.33594L572.102 1.33594V3.33594ZM647.277 86.125L646.883 85.2062L646.88 85.2074L647.277 86.125ZM621.438 88.5859L621.3 89.5764L621.302 89.5767L621.438 88.5859ZM613.293 86.8867L613.003 87.8437L613.012 87.8463L613.02 87.8488L613.293 86.8867ZM605.91 84.0156H604.91V84.643L605.475 84.916L605.91 84.0156ZM605.91 67.1406L606.315 66.2261L604.91 65.6049V67.1406H605.91ZM638.723 73L638.331 72.0798L638.324 72.0829L638.723 73ZM635.793 55.3047L635.324 56.1878L635.329 56.1908L635.793 55.3047ZM627.297 51.0273L627.731 50.1263L627.723 50.1225L627.297 51.0273ZM620.793 47.6289L620.289 48.4928L620.3 48.4989L620.793 47.6289ZM608.898 35.5586L607.994 35.9856L607.998 35.9932L608.001 36.0007L608.898 35.5586ZM620.441 4.03516L620.845 4.94999L620.849 4.94829L620.441 4.03516ZM648.625 2.6875L648.371 3.65488L648.382 3.65764L648.625 2.6875ZM661.34 7.14062L662.263 7.52388L662.638 6.62148L661.744 6.22615L661.34 7.14062ZM655.48 21.2617L655.104 22.1883L656.024 22.5615L656.404 21.645L655.48 21.2617ZM644.875 17.5703L644.599 18.5314L644.61 18.5345L644.875 17.5703ZM629.523 17.3359L629.925 18.2516L629.935 18.2475L629.944 18.2432L629.523 17.3359ZM625.891 20.3828L626.734 20.9197L626.741 20.9083L625.891 20.3828ZM626.418 30.0508L625.65 30.691L625.659 30.7025L625.669 30.7138L626.418 30.0508ZM631.809 34.0352L631.333 34.9147L631.339 34.9179L631.809 34.0352ZM640.832 38.5469L640.401 39.449L640.404 39.4508L640.832 38.5469ZM652.023 45.0508L651.432 45.8569L651.437 45.8611L651.443 45.8652L652.023 45.0508ZM659.23 52.9609L658.355 53.4437L658.357 53.4485L659.23 52.9609ZM660.75 64.2109C660.75 69.1207 659.563 73.3383 657.223 76.9045L658.895 78.0018C661.476 74.0679 662.75 69.4575 662.75 64.2109H660.75ZM657.223 76.9045C654.884 80.4674 651.456 83.2407 646.883 85.2062L647.672 87.0438C652.552 84.9468 656.311 81.9389 658.895 78.0018L657.223 76.9045ZM646.88 85.2074C642.351 87.1701 636.791 88.1719 630.168 88.1719V90.1719C636.982 90.1719 642.829 89.1424 647.675 87.0426L646.88 85.2074ZM630.168 88.1719C627.243 88.1719 624.378 87.9795 621.573 87.5952L621.302 89.5767C624.2 89.9737 627.155 90.1719 630.168 90.1719V88.1719ZM621.575 87.5954C618.806 87.2109 616.137 86.6537 613.566 85.9247L613.02 87.8488C615.684 88.6041 618.444 89.1797 621.3 89.5764L621.575 87.5954ZM613.583 85.9297C611.053 85.163 608.641 84.2247 606.345 83.1153L605.475 84.916C607.867 86.0722 610.377 87.0479 613.003 87.8437L613.583 85.9297ZM606.91 84.0156V67.1406H604.91V84.0156H606.91ZM605.506 68.0552C609.599 69.8656 613.848 71.4983 618.253 72.9534L618.88 71.0544C614.535 69.6189 610.346 68.0094 606.315 66.2261L605.506 68.0552ZM618.253 72.9534C622.722 74.4298 627.163 75.1719 631.574 75.1719V73.1719C627.391 73.1719 623.161 72.4687 618.88 71.0544L618.253 72.9534ZM631.574 75.1719C634.616 75.1719 637.151 74.7738 639.121 73.9171L638.324 72.0829C636.701 72.7887 634.47 73.1719 631.574 73.1719V75.1719ZM639.114 73.9202C641.095 73.0773 642.611 71.8812 643.565 70.2918L641.85 69.2628C641.163 70.4079 640.022 71.3602 638.331 72.0798L639.114 73.9202ZM643.565 70.2918C644.487 68.7536 644.938 67.0098 644.938 65.0898H642.938C642.938 66.6855 642.567 68.0667 641.85 69.2628L643.565 70.2918ZM644.938 65.0898C644.938 62.6919 644.121 60.6077 642.495 58.8938L641.044 60.2703C642.309 61.6032 642.938 63.1909 642.938 65.0898H644.938ZM642.495 58.8938C640.952 57.2672 638.86 55.7805 636.256 54.4186L635.329 56.1908C637.804 57.4851 639.697 58.85 641.044 60.2703L642.495 58.8938ZM636.262 54.4216C633.748 53.086 630.904 51.6542 627.731 50.1263L626.863 51.9283C630.018 53.4474 632.838 54.8671 635.324 56.1878L636.262 54.4216ZM627.723 50.1225C625.758 49.1978 623.612 48.0772 621.286 46.7589L620.3 48.4989C622.661 49.8369 624.852 50.9819 626.871 51.9322L627.723 50.1225ZM621.297 46.7651C619.02 45.4369 616.852 43.8211 614.793 41.9147L613.434 43.3822C615.594 45.382 617.879 47.0866 620.289 48.4927L621.297 46.7651ZM614.793 41.9147C612.78 40.0507 611.113 37.7885 609.795 35.1164L608.001 36.0007C609.419 38.8755 611.228 41.3399 613.434 43.3822L614.793 41.9147ZM609.803 35.1316C608.552 32.4822 607.906 29.2758 607.906 25.4805H605.906C605.906 29.4977 606.589 33.0099 607.994 35.9856L609.803 35.1316ZM607.906 25.4805C607.906 20.5197 609.041 16.3411 611.262 12.8976L609.582 11.8133C607.116 15.6355 605.906 20.2068 605.906 25.4805H607.906ZM611.262 12.8976C613.49 9.44472 616.67 6.79304 620.845 4.94998L620.038 3.12033C615.541 5.1054 612.041 8.00059 609.582 11.8133L611.262 12.8976ZM620.849 4.94829C625.069 3.06441 630.08 2.10547 635.91 2.10547V0.105469C629.865 0.105469 624.564 1.09965 620.034 3.12202L620.849 4.94829ZM635.91 2.10547C640.284 2.10547 644.436 2.6233 648.371 3.65482L648.879 1.72018C644.767 0.642323 640.443 0.105469 635.91 0.105469V2.10547ZM648.382 3.65764C652.382 4.65748 656.566 6.12172 660.935 8.0551L661.744 6.22615C657.286 4.25328 652.993 2.74877 648.868 1.71736L648.382 3.65764ZM660.416 6.75737L654.557 20.8785L656.404 21.645L662.263 7.52388L660.416 6.75737ZM655.857 20.3352C651.886 18.7232 648.312 17.4785 645.14 16.6061L644.61 18.5345C647.688 19.3809 651.185 20.5972 655.104 22.1883L655.857 20.3352ZM645.151 16.6092C641.937 15.6851 638.66 15.2227 635.324 15.2227V17.2227C638.473 17.2227 641.563 17.6587 644.599 18.5314L645.151 16.6092ZM635.324 15.2227C632.953 15.2227 630.868 15.6106 629.103 16.4286L629.944 18.2432C631.382 17.5769 633.164 17.2227 635.324 17.2227V15.2227ZM629.121 16.4203C627.357 17.1947 625.979 18.3362 625.04 19.8573L626.741 20.9083C627.443 19.7732 628.486 18.8834 629.925 18.2516L629.121 16.4203ZM625.047 19.8459C624.112 21.3149 623.66 23.0101 623.66 24.8945H625.66C625.66 23.3415 626.028 22.0288 626.734 20.9197L625.047 19.8459ZM623.66 24.8945C623.66 27.1323 624.311 29.085 625.65 30.691L627.186 29.4106C626.181 28.204 625.66 26.7192 625.66 24.8945H623.66ZM625.669 30.7138C626.986 32.2 628.892 33.5943 631.333 34.9147L632.284 33.1556C629.96 31.8979 628.272 30.6359 627.167 29.3877L625.669 30.7138ZM631.339 34.9179C633.778 36.216 636.799 37.7266 640.401 39.449L641.263 37.6447C637.677 35.9297 634.683 34.4325 632.278 33.1524L631.339 34.9179ZM640.404 39.4508C644.736 41.5006 648.409 43.6374 651.432 45.8569L652.615 44.2447C649.466 41.9329 645.678 39.7338 641.26 37.643L640.404 39.4508ZM651.443 45.8652C654.459 48.0138 656.755 50.5412 658.355 53.4437L660.106 52.4782C658.347 49.287 655.838 46.5409 652.604 44.2364L651.443 45.8652ZM658.357 53.4485C659.932 56.2687 660.75 59.839 660.75 64.2109H662.75C662.75 59.5985 661.888 55.6688 660.104 52.4734L658.357 53.4485ZM692.512 74.0547L693.349 73.5084L693.053 73.0547H692.512V74.0547ZM693.391 75.4023L694.361 75.6449L694.467 75.2216L694.228 74.8561L693.391 75.4023ZM690.637 84.4844L689.693 84.1545L689.689 84.1647L690.637 84.4844ZM687.004 94.2109L686.078 93.8319L686.075 93.8415L687.004 94.2109ZM683.078 103.469V104.469H683.723L683.989 103.882L683.078 103.469ZM670.188 103.469L669.217 103.229L668.911 104.469H670.188V103.469ZM674.523 83.2539L673.542 83.06L673.54 83.071L674.523 83.2539ZM676.105 74.0547V73.0547H675.236L675.115 73.9152L676.105 74.0547ZM691.674 74.601L692.553 75.9486L694.228 74.8561L693.349 73.5084L691.674 74.601ZM692.42 75.1598C691.726 77.938 690.817 80.936 689.693 84.1545L691.581 84.8142C692.722 81.5484 693.649 78.4916 694.361 75.6449L692.42 75.1598ZM689.689 84.1647C688.602 87.3864 687.399 90.6088 686.079 93.8319L687.929 94.59C689.265 91.3287 690.484 88.0667 691.584 84.804L689.689 84.1647ZM686.075 93.8415C684.791 97.0703 683.488 100.142 682.167 103.056L683.989 103.882C685.324 100.936 686.639 97.836 687.933 94.5804L686.075 93.8415ZM683.078 102.469H670.188V104.469H683.078V102.469ZM671.158 103.708C671.942 100.533 672.706 97.2026 673.451 93.7166L671.495 93.299C670.755 96.7662 669.995 100.076 669.217 103.229L671.158 103.708ZM673.451 93.7166C674.195 90.2318 674.88 86.8052 675.507 83.4368L673.54 83.071C672.917 86.4214 672.235 89.8307 671.495 93.299L673.451 93.7166ZM675.504 83.4478C676.171 80.0742 676.702 76.9893 677.096 74.1942L675.115 73.9152C674.728 76.667 674.204 79.7149 673.542 83.06L675.504 83.4478ZM676.105 75.0547H692.512V73.0547H676.105V75.0547Z" fill="#D9D9D9"/>
</g>
</svg>
