<svg width="696" height="115" viewBox="0 0 696 115" fill="none" xmlns="http://www.w3.org/2000/svg">
<path opacity="0.3" d="M63.3945 113L62.4379 113.291L62.6538 114H63.3945V113ZM57.1836 92.6094L58.1402 92.318L57.9244 91.6094H57.1836V92.6094ZM25.9531 92.6094V91.6094H25.2124L24.9965 92.318L25.9531 92.6094ZM19.7422 113V114H20.483L20.6988 113.291L19.7422 113ZM0.171875 113L-0.771542 112.668L-1.2396 114H0.171875L0.171875 113ZM30.4063 26.9844V25.9844H29.6978L29.4628 26.6528L30.4063 26.9844ZM52.6133 26.9844L53.5563 26.6516L53.3208 25.9844H52.6133V26.9844ZM82.9648 113V114H84.3781L83.9079 112.667L82.9648 113ZM52.8477 77.375V78.375H54.2069L53.8023 77.0774L52.8477 77.375ZM46.6367 57.4531L45.6774 57.7353L45.6796 57.743L45.682 57.7508L46.6367 57.4531ZM45.0547 52.3555L44.0959 52.6396L44.0991 52.6503L44.1025 52.6609L45.0547 52.3555ZM43.1211 45.9687L42.1596 46.2435L42.1625 46.2538L42.1657 46.2641L43.1211 45.9687ZM41.5977 40.2852L42.5692 40.0482H40.6261L41.5977 40.2852ZM39.957 46.2617L38.9979 45.9787L38.9949 45.9891L39.957 46.2617ZM36.6758 57.4531L37.6313 57.7482L37.6325 57.7443L36.6758 57.4531ZM30.5234 77.375L29.568 77.0799L29.168 78.375H30.5234L30.5234 77.375ZM38.668 0.910156L39.5056 0.363888L39.2097 -0.0898438H38.668V0.910156ZM42.8867 6.88672L42.0867 7.48676L42.0936 7.49574L42.8867 6.88672ZM47.9844 13.2734L47.2149 13.9122L47.221 13.9194L47.9844 13.2734ZM52.4375 18.5469H53.4375V18.1819L53.2024 17.9027L52.4375 18.5469ZM52.4375 20.1289V21.1289H53.4375V20.1289H52.4375ZM40.6016 20.1289L40.0324 20.9511L40.2892 21.1289H40.6016V20.1289ZM35.2695 16.2031L34.6503 16.9885L34.6598 16.9957L35.2695 16.2031ZM29 11.2227L28.3598 11.9909L28.3675 11.9973L28.3753 12.0035L29 11.2227ZM18.6289 2.14062H17.6289V2.56515L17.9343 2.86003L18.6289 2.14062ZM18.6289 0.910156V-0.0898438H17.6289V0.910156L18.6289 0.910156ZM64.3511 112.709L58.1402 92.318L56.227 92.9008L62.4379 113.291L64.3511 112.709ZM57.1836 91.6094L25.9531 91.6094V93.6094L57.1836 93.6094V91.6094ZM24.9965 92.318L18.7856 112.709L20.6988 113.291L26.9097 92.9008L24.9965 92.318ZM19.7422 112H0.171875L0.171875 114H19.7422V112ZM1.11529 113.332L31.3497 27.316L29.4628 26.6528L-0.771542 112.668L1.11529 113.332ZM30.4063 27.9844L52.6133 27.9844V25.9844L30.4063 25.9844V27.9844ZM51.6703 27.3171L82.0218 113.333L83.9079 112.667L53.5563 26.6516L51.6703 27.3171ZM82.9648 112H63.3945V114H82.9648V112ZM53.8023 77.0774L47.5914 57.1555L45.682 57.7508L51.893 77.6726L53.8023 77.0774ZM47.5961 57.171C47.2023 55.832 46.6722 54.1243 46.0069 52.05L44.1025 52.6609C44.7653 54.7273 45.2899 56.418 45.6774 57.7353L47.5961 57.171ZM46.0135 52.0714C45.3874 49.9582 44.7417 47.8255 44.0765 45.6734L42.1657 46.2641C42.8286 48.4088 43.472 50.534 44.0959 52.6396L46.0135 52.0714ZM44.0826 45.694C43.46 43.5147 42.9558 41.6334 42.5692 40.0482L40.6261 40.5221C41.0208 42.14 41.5322 44.0478 42.1596 46.2435L44.0826 45.694ZM40.6261 40.0482C40.2406 41.6287 39.6985 43.6043 38.9979 45.9787L40.9161 46.5447C41.6218 44.1535 42.1734 42.1447 42.5692 40.5221L40.6261 40.0482ZM38.9949 45.9891C38.3318 48.3294 37.6884 50.5521 37.0646 52.6573L38.9822 53.2255C39.6085 51.1119 40.2541 48.8815 40.9192 46.5343L38.9949 45.9891ZM37.0646 52.6573C36.4397 54.7666 35.9914 56.2674 35.7191 57.162L37.6325 57.7443C37.9071 56.842 38.3572 55.335 38.9822 53.2255L37.0646 52.6573ZM35.7203 57.1581L29.568 77.0799L31.4789 77.6701L37.6313 57.7482L35.7203 57.1581ZM30.5234 78.375L52.8477 78.375V76.375L30.5234 76.375L30.5234 78.375ZM37.8304 1.45642C39.0169 3.27578 40.4363 5.28621 42.0867 7.48672L43.6867 6.28672C42.0559 4.11223 40.6628 2.13829 39.5056 0.363888L37.8304 1.45642ZM42.0936 7.49574C43.7808 9.69305 45.4879 11.8319 47.215 13.9122L48.7538 12.6347C47.0433 10.5744 45.352 8.45538 43.6799 6.27769L42.0936 7.49574ZM47.221 13.9194C48.9394 15.9502 50.4232 17.7074 51.6726 19.191L53.2024 17.9027C51.9518 16.4176 50.4668 14.6591 48.7478 12.6275L47.221 13.9194ZM51.4375 18.5469V20.1289H53.4375V18.5469H51.4375ZM52.4375 19.1289H40.6016V21.1289H52.4375V19.1289ZM41.1708 19.3067C39.6651 18.2644 37.9018 16.9663 35.8792 15.4105L34.6598 16.9957C36.6997 18.5649 38.4911 19.8841 40.0324 20.9511L41.1708 19.3067ZM35.8887 15.4179C33.8594 13.8178 31.7714 12.1592 29.6247 10.4418L28.3753 12.0035C30.5255 13.7237 32.6172 15.3853 34.6504 16.9884L35.8887 15.4179ZM29.6402 10.4544C27.5359 8.70085 25.569 7.02607 23.7394 5.43002L22.4247 6.93716C24.2669 8.54425 26.2454 10.2288 28.3598 11.9909L29.6402 10.4544ZM23.7394 5.43002C21.9101 3.83426 20.4395 2.49878 19.3235 1.42122L17.9343 2.86003C19.0839 3.96997 20.5821 5.3298 22.4247 6.93716L23.7394 5.43002ZM19.6289 2.14062V0.910156L17.6289 0.910156V2.14062L19.6289 2.14062ZM18.6289 1.91016L38.668 1.91016V-0.0898438L18.6289 -0.0898438V1.91016ZM190.484 93.5469L189.616 93.0502L189.615 93.0519L190.484 93.5469ZM174.488 108.137L174.909 109.044L174.913 109.042L174.488 108.137ZM124.977 113H123.977V114H124.977V113ZM124.977 27.3359V26.3359H123.977V27.3359H124.977ZM175.25 32.1406L174.813 33.0403L174.818 33.0424L175.25 32.1406ZM190.602 46.2617L189.737 46.7642L189.738 46.7666L190.602 46.2617ZM174.371 54.2305L173.458 54.6391L173.463 54.6495L174.371 54.2305ZM166.168 45.1484L165.69 46.0271L165.694 46.0292L166.168 45.1484ZM143.141 42.2187V41.2187H142.141V42.2187H143.141ZM143.141 98H142.141V99H143.141V98ZM170.68 90.9102L169.943 90.2341L169.94 90.2375L170.68 90.9102ZM195.051 69.3477C195.051 78.8714 193.219 86.7549 189.616 93.0502L191.352 94.0436C195.171 87.3701 197.051 79.1207 197.051 69.3477H195.051ZM189.615 93.0519C186.05 99.3102 180.877 104.034 174.063 107.231L174.913 109.042C182.084 105.677 187.575 100.674 191.353 94.0419L189.615 93.0519ZM174.068 107.23C167.238 110.396 158.972 112 149.234 112V114C159.185 114 167.754 112.362 174.909 109.044L174.068 107.23ZM149.234 112L124.977 112V114L149.234 114V112ZM125.977 113L125.977 27.3359H123.977L123.977 113H125.977ZM124.977 28.3359L151.871 28.3359V26.3359L124.977 26.3359V28.3359ZM151.871 28.3359C160.738 28.3359 168.375 29.9163 174.813 33.0403L175.687 31.2409C168.922 27.9587 160.973 26.3359 151.871 26.3359V28.3359ZM174.818 33.0424C181.241 36.1209 186.206 40.69 189.737 46.7642L191.466 45.7592C187.731 39.3334 182.462 34.4884 175.682 31.2389L174.818 33.0424ZM189.738 46.7666C193.26 52.7876 195.051 60.2973 195.051 69.3477H197.051C197.051 60.0386 195.209 52.1577 191.465 45.7568L189.738 46.7666ZM178.184 69.8164C178.184 63.3994 177.234 58.048 175.279 53.8114L173.463 54.6495C175.258 58.538 176.184 63.5772 176.184 69.8164H178.184ZM175.284 53.8219C173.366 49.5379 170.487 46.3349 166.642 44.2677L165.694 46.0292C169.115 47.8682 171.704 50.7199 173.458 54.639L175.284 53.8219ZM166.645 44.2698C162.868 42.2168 158.24 41.2187 152.809 41.2187V43.2187C158.003 43.2187 162.281 44.1739 165.69 46.0271L166.645 44.2698ZM152.809 41.2187H143.141V43.2187H152.809V41.2187ZM142.141 42.2187L142.141 98H144.141L144.141 42.2187H142.141ZM143.141 99H150.934V97H143.141V99ZM150.934 99C159.969 99 166.869 96.589 171.42 91.5828L169.94 90.2375C165.897 94.6845 159.632 97 150.934 97V99ZM171.417 91.5862C175.985 86.6062 178.184 79.2901 178.184 69.8164H176.184C176.184 79.0146 174.046 85.7609 169.943 90.2342L171.417 91.5862ZM289.098 88.0977L290.054 88.3888L290.055 88.3869L289.098 88.0977ZM281.598 102.043L280.839 101.391L280.836 101.395L281.598 102.043ZM268.941 111.066L269.316 111.993L269.323 111.991L268.941 111.066ZM232.613 111.066L232.232 111.991L232.238 111.993L232.613 111.066ZM219.898 102.043L219.136 102.691L219.14 102.695L219.898 102.043ZM214.332 46.7891L213.418 46.3834L213.417 46.386L214.332 46.7891ZM273.805 31.4375L273.285 32.292L273.288 32.2935L273.805 31.4375ZM287.164 46.7891L286.248 47.1902L286.25 47.1947L287.164 46.7891ZM231.266 85.5195L230.319 85.8434L230.323 85.8537L231.266 85.5195ZM238.355 95.4805L237.765 96.2875L237.771 96.2922L238.355 95.4805ZM263.316 95.4805L263.9 96.2922L263.907 96.2875L263.316 95.4805ZM270.289 85.5195L269.343 85.1956L269.341 85.2007L270.289 85.5195ZM267.477 48.8398L266.639 49.3857L267.477 48.8398ZM238.355 44.6211L238.94 45.4328L238.941 45.4315L238.355 44.6211ZM231.266 54.582L230.322 54.2505L230.32 54.2555L231.266 54.582ZM290.559 70.0508C290.559 76.57 289.748 82.4864 288.14 87.8084L290.055 88.3869C291.728 82.8495 292.559 76.7347 292.559 70.0508H290.559ZM288.141 87.8065C286.537 93.0769 284.1 97.5994 280.839 101.391L282.356 102.695C285.814 98.674 288.377 93.8997 290.054 88.3888L288.141 87.8065ZM280.836 101.395C277.627 105.171 273.542 108.088 268.56 110.142L269.323 111.991C274.575 109.826 278.928 106.728 282.36 102.691L280.836 101.395ZM268.566 110.139C263.595 112.151 257.674 113.172 250.777 113.172V115.172C257.865 115.172 264.053 114.123 269.316 111.993L268.566 110.139ZM250.777 113.172C243.881 113.172 237.959 112.151 232.988 110.139L232.238 111.993C237.502 114.123 243.69 115.172 250.777 115.172V113.172ZM232.994 110.142C228.012 108.088 223.906 105.169 220.657 101.391L219.14 102.695C222.61 106.729 226.981 109.826 232.232 111.991L232.994 110.142ZM220.66 101.395C217.438 97.6045 215.019 93.062 213.414 87.7498L211.5 88.3283C213.176 93.8755 215.718 98.6689 219.136 102.691L220.66 101.395ZM213.414 87.7498C211.806 82.4283 210.996 76.4925 210.996 69.9336H208.996C208.996 76.6559 209.826 82.7904 211.5 88.3283L213.414 87.7498ZM210.996 69.9336C210.996 61.1733 212.424 53.6014 215.247 47.1922L213.417 46.386C210.459 53.1018 208.996 60.9595 208.996 69.9336H210.996ZM215.246 47.1947C218.094 40.7767 222.449 35.8193 228.323 32.295L227.294 30.58C221.059 34.3213 216.429 39.5983 213.418 46.3834L215.246 47.1947ZM228.323 32.295C234.18 28.7809 241.683 26.9883 250.895 26.9883V24.9883C241.434 24.9883 233.547 26.8285 227.294 30.58L228.323 32.295ZM250.895 26.9883C260.067 26.9883 267.509 28.7808 273.285 32.292L274.324 30.583C268.147 26.8286 260.316 24.9883 250.895 24.9883V26.9883ZM273.288 32.2935C279.122 35.8167 283.438 40.7727 286.248 47.1902L288.08 46.388C285.109 39.6023 280.519 34.3239 274.322 30.5815L273.288 32.2935ZM286.25 47.1947C289.111 53.6424 290.559 61.2525 290.559 70.0508H292.559C292.559 61.0365 291.076 53.1388 288.078 46.3834L286.25 47.1947ZM228.039 70.0508C228.039 76.1059 228.79 81.377 230.32 85.8434L232.212 85.1956C230.772 80.9902 230.039 75.9488 230.039 70.0508H228.039ZM230.323 85.8537C231.903 90.311 234.376 93.8081 237.765 96.2875L238.946 94.6734C235.928 92.4653 233.675 89.3219 232.208 85.1854L230.323 85.8537ZM237.771 96.2922C241.188 98.7503 245.55 99.9375 250.777 99.9375V97.9375C245.849 97.9375 241.929 96.82 238.94 94.6687L237.771 96.2922ZM250.777 99.9375C256.079 99.9375 260.482 98.752 263.9 96.2922L262.732 94.6687C259.745 96.8183 255.788 97.9375 250.777 97.9375V99.9375ZM263.907 96.2875C267.3 93.805 269.735 90.3021 271.237 85.8383L269.341 85.2007C267.952 89.3307 265.739 92.4685 262.726 94.6734L263.907 96.2875ZM271.235 85.8434C272.764 81.377 273.516 76.1059 273.516 70.0508H271.516C271.516 75.9488 270.783 80.9902 269.343 85.1956L271.235 85.8434ZM273.516 70.0508C273.516 60.9569 271.818 53.6712 268.314 48.294L266.639 49.3857C269.854 54.321 271.516 61.1759 271.516 70.0508H273.516ZM268.314 48.294C264.723 42.7822 258.832 40.1055 250.895 40.1055V42.1055C258.348 42.1055 263.511 44.585 266.639 49.3857L268.314 48.294ZM250.895 40.1055C245.626 40.1055 241.225 41.3132 237.77 43.8107L238.941 45.4315C241.971 43.2415 245.929 42.1055 250.895 42.1055V40.1055ZM237.771 43.8094C234.376 46.2524 231.902 49.7542 230.322 54.2505L232.209 54.9135C233.676 50.7379 235.929 47.5992 238.94 45.4328L237.771 43.8094ZM230.32 54.2555C228.79 58.6852 228.039 63.9578 228.039 70.0508H230.039C230.039 64.1125 230.772 59.0726 232.211 54.9086L230.32 54.2555ZM345.582 113L344.626 113.293L344.843 114H345.582V113ZM324.957 45.793L325.913 45.4996L325.696 44.793H324.957V45.793ZM324.43 45.793V44.793H323.38L323.431 45.8417L324.43 45.793ZM324.781 53.0586L323.782 53.1067L323.783 53.1195L324.781 53.0586ZM325.543 113V114H326.543V113H325.543ZM309.312 113L308.312 113V114L309.312 114V113ZM309.312 27.3359V26.3359H308.312V27.3359H309.312ZM334.039 27.3359L334.994 27.0403L334.776 26.3359H334.039V27.3359ZM354.312 92.8437L353.357 93.1394L353.575 93.8437H354.312V92.8437ZM354.664 92.8437V93.8437H355.388L355.614 93.1556L354.664 92.8437ZM376.168 27.3359V26.3359H375.444L375.218 27.024L376.168 27.3359ZM400.895 27.3359H401.895V26.3359H400.895V27.3359ZM400.895 113V114H401.895V113H400.895ZM383.961 113H382.961V114H383.961V113ZM384.078 63.1367L383.079 63.1034L383.078 63.1145L384.078 63.1367ZM384.488 53.1172L385.487 53.1665L385.487 53.1659L384.488 53.1172ZM384.84 45.9102L385.839 45.9589L385.89 44.9102H384.84V45.9102ZM384.312 45.9102V44.9102H383.589L383.363 45.5974L384.312 45.9102ZM362.223 113V114H362.946L363.172 113.313L362.223 113ZM346.538 112.707L325.913 45.4996L324.001 46.0864L344.626 113.293L346.538 112.707ZM324.957 44.793H324.43V46.793H324.957V44.793ZM323.431 45.8417C323.509 47.4429 323.626 49.8646 323.782 53.1067L325.78 53.0105C325.624 49.7682 325.507 47.3461 325.428 45.7442L323.431 45.8417ZM323.783 53.1195C323.978 56.3159 324.153 59.7279 324.31 63.3555L326.308 63.2695C326.151 59.6315 325.975 56.2075 325.779 52.9977L323.783 53.1195ZM324.31 63.3555C324.465 66.9772 324.543 70.2438 324.543 73.1562H326.543C326.543 70.2093 326.464 66.9134 326.308 63.2695L324.31 63.3555ZM324.543 73.1562V113H326.543V73.1562H324.543ZM325.543 112H309.312V114H325.543V112ZM310.312 113V27.3359H308.312V113L310.312 113ZM309.312 28.3359L334.039 28.3359V26.3359L309.312 26.3359V28.3359ZM333.084 27.6316L353.357 93.1394L355.268 92.5481L334.994 27.0403L333.084 27.6316ZM354.312 93.8437H354.664V91.8437H354.312V93.8437ZM355.614 93.1556L377.118 27.6478L375.218 27.024L353.714 92.5319L355.614 93.1556ZM376.168 28.3359L400.895 28.3359V26.3359L376.168 26.3359V28.3359ZM399.895 27.3359V113H401.895V27.3359H399.895ZM400.895 112L383.961 112V114L400.895 114V112ZM384.961 113V72.4531H382.961V113H384.961ZM384.961 72.4531C384.961 69.767 385 66.6692 385.078 63.1589L383.078 63.1145C383 66.6354 382.961 69.7486 382.961 72.4531H384.961ZM385.078 63.17C385.195 59.6592 385.331 56.3247 385.487 53.1665L383.489 53.0679C383.333 56.2378 383.196 59.583 383.079 63.1034L385.078 63.17ZM385.487 53.1659C385.487 53.1597 385.488 53.1534 385.488 53.1472C385.488 53.1409 385.489 53.1347 385.489 53.1284C385.489 53.1222 385.49 53.1159 385.49 53.1097C385.49 53.1034 385.49 53.0972 385.491 53.091C385.491 53.0848 385.491 53.0785 385.492 53.0723C385.492 53.0661 385.492 53.0598 385.493 53.0536C385.493 53.0474 385.493 53.0412 385.493 53.035C385.494 53.0288 385.494 53.0226 385.494 53.0164C385.495 53.0101 385.495 53.0039 385.495 52.9977C385.496 52.9915 385.496 52.9853 385.496 52.9791C385.497 52.9729 385.497 52.9668 385.497 52.9606C385.497 52.9544 385.498 52.9482 385.498 52.942C385.498 52.9358 385.499 52.9296 385.499 52.9235C385.499 52.9173 385.5 52.9111 385.5 52.9049C385.5 52.8988 385.5 52.8926 385.501 52.8864C385.501 52.8803 385.501 52.8741 385.502 52.868C385.502 52.8618 385.502 52.8556 385.503 52.8495C385.503 52.8433 385.503 52.8372 385.503 52.831C385.504 52.8249 385.504 52.8188 385.504 52.8126C385.505 52.8065 385.505 52.8003 385.505 52.7942C385.506 52.7881 385.506 52.7819 385.506 52.7758C385.506 52.7697 385.507 52.7636 385.507 52.7574C385.507 52.7513 385.508 52.7452 385.508 52.7391C385.508 52.733 385.509 52.7269 385.509 52.7207C385.509 52.7146 385.509 52.7085 385.51 52.7024C385.51 52.6963 385.51 52.6902 385.511 52.6841C385.511 52.678 385.511 52.6719 385.511 52.6658C385.512 52.6598 385.512 52.6537 385.512 52.6476C385.513 52.6415 385.513 52.6354 385.513 52.6293C385.514 52.6233 385.514 52.6172 385.514 52.6111C385.514 52.605 385.515 52.599 385.515 52.5929C385.515 52.5868 385.516 52.5808 385.516 52.5747C385.516 52.5686 385.517 52.5626 385.517 52.5565C385.517 52.5505 385.517 52.5444 385.518 52.5384C385.518 52.5323 385.518 52.5263 385.519 52.5202C385.519 52.5142 385.519 52.5082 385.519 52.5021C385.52 52.4961 385.52 52.4901 385.52 52.484C385.521 52.478 385.521 52.472 385.521 52.4659C385.522 52.4599 385.522 52.4539 385.522 52.4479C385.522 52.4419 385.523 52.4359 385.523 52.4298C385.523 52.4238 385.524 52.4178 385.524 52.4118C385.524 52.4058 385.524 52.3998 385.525 52.3938C385.525 52.3878 385.525 52.3818 385.526 52.3758C385.526 52.3698 385.526 52.3638 385.527 52.3578C385.527 52.3519 385.527 52.3459 385.527 52.3399C385.528 52.3339 385.528 52.3279 385.528 52.322C385.529 52.316 385.529 52.31 385.529 52.304C385.529 52.2981 385.53 52.2921 385.53 52.2861C385.53 52.2802 385.531 52.2742 385.531 52.2683C385.531 52.2623 385.531 52.2564 385.532 52.2504C385.532 52.2445 385.532 52.2385 385.533 52.2326C385.533 52.2266 385.533 52.2207 385.533 52.2147C385.534 52.2088 385.534 52.2029 385.534 52.1969C385.535 52.191 385.535 52.1851 385.535 52.1791C385.536 52.1732 385.536 52.1673 385.536 52.1614C385.536 52.1555 385.537 52.1495 385.537 52.1436C385.537 52.1377 385.538 52.1318 385.538 52.1259C385.538 52.12 385.538 52.1141 385.539 52.1082C385.539 52.1023 385.539 52.0964 385.54 52.0905C385.54 52.0846 385.54 52.0787 385.54 52.0728C385.541 52.0669 385.541 52.061 385.541 52.0551C385.542 52.0493 385.542 52.0434 385.542 52.0375C385.542 52.0316 385.543 52.0258 385.543 52.0199C385.543 52.014 385.544 52.0081 385.544 52.0023C385.544 51.9964 385.544 51.9905 385.545 51.9847C385.545 51.9788 385.545 51.973 385.546 51.9671C385.546 51.9613 385.546 51.9554 385.546 51.9496C385.547 51.9437 385.547 51.9379 385.547 51.932C385.548 51.9262 385.548 51.9204 385.548 51.9145C385.548 51.9087 385.549 51.9029 385.549 51.897C385.549 51.8912 385.55 51.8854 385.55 51.8796C385.55 51.8737 385.55 51.8679 385.551 51.8621C385.551 51.8563 385.551 51.8505 385.552 51.8447C385.552 51.8388 385.552 51.833 385.552 51.8272C385.553 51.8214 385.553 51.8156 385.553 51.8098C385.554 51.804 385.554 51.7982 385.554 51.7925C385.554 51.7867 385.555 51.7809 385.555 51.7751C385.555 51.7693 385.556 51.7635 385.556 51.7577C385.556 51.752 385.556 51.7462 385.557 51.7404C385.557 51.7346 385.557 51.7289 385.557 51.7231C385.558 51.7173 385.558 51.7116 385.558 51.7058C385.559 51.7 385.559 51.6943 385.559 51.6885C385.559 51.6828 385.56 51.677 385.56 51.6713C385.56 51.6655 385.561 51.6598 385.561 51.654C385.561 51.6483 385.561 51.6426 385.562 51.6368C385.562 51.6311 385.562 51.6253 385.563 51.6196C385.563 51.6139 385.563 51.6082 385.563 51.6024C385.564 51.5967 385.564 51.591 385.564 51.5853C385.564 51.5795 385.565 51.5738 385.565 51.5681C385.565 51.5624 385.566 51.5567 385.566 51.551C385.566 51.5453 385.566 51.5396 385.567 51.5339C385.567 51.5282 385.567 51.5225 385.568 51.5168C385.568 51.5111 385.568 51.5054 385.568 51.4997C385.569 51.494 385.569 51.4883 385.569 51.4827C385.569 51.477 385.57 51.4713 385.57 51.4656C385.57 51.46 385.571 51.4543 385.571 51.4486C385.571 51.4429 385.571 51.4373 385.572 51.4316C385.572 51.4259 385.572 51.4203 385.573 51.4146C385.573 51.409 385.573 51.4033 385.573 51.3977C385.574 51.392 385.574 51.3864 385.574 51.3807C385.574 51.3751 385.575 51.3694 385.575 51.3638C385.575 51.3582 385.576 51.3525 385.576 51.3469C385.576 51.3413 385.576 51.3356 385.577 51.33C385.577 51.3244 385.577 51.3187 385.577 51.3131C385.578 51.3075 385.578 51.3019 385.578 51.2963C385.579 51.2907 385.579 51.285 385.579 51.2794C385.579 51.2738 385.58 51.2682 385.58 51.2626C385.58 51.257 385.58 51.2514 385.581 51.2458C385.581 51.2402 385.581 51.2346 385.582 51.229C385.582 51.2235 385.582 51.2179 385.582 51.2123C385.583 51.2067 385.583 51.2011 385.583 51.1955C385.583 51.19 385.584 51.1844 385.584 51.1788C385.584 51.1732 385.585 51.1677 385.585 51.1621C385.585 51.1565 385.585 51.151 385.586 51.1454C385.586 51.1399 385.586 51.1343 385.586 51.1288C385.587 51.1232 385.587 51.1176 385.587 51.1121C385.588 51.1066 385.588 51.101 385.588 51.0955C385.588 51.0899 385.589 51.0844 385.589 51.0789C385.589 51.0733 385.589 51.0678 385.59 51.0623C385.59 51.0567 385.59 51.0512 385.591 51.0457C385.591 51.0402 385.591 51.0346 385.591 51.0291C385.592 51.0236 385.592 51.0181 385.592 51.0126C385.592 51.0071 385.593 51.0016 385.593 50.9961C385.593 50.9905 385.593 50.985 385.594 50.9795C385.594 50.974 385.594 50.9686 385.595 50.9631C385.595 50.9576 385.595 50.9521 385.595 50.9466C385.596 50.9411 385.596 50.9356 385.596 50.9301C385.596 50.9247 385.597 50.9192 385.597 50.9137C385.597 50.9082 385.597 50.9028 385.598 50.8973C385.598 50.8918 385.598 50.8864 385.599 50.8809C385.599 50.8754 385.599 50.87 385.599 50.8645C385.6 50.8591 385.6 50.8536 385.6 50.8482C385.6 50.8427 385.601 50.8373 385.601 50.8318C385.601 50.8264 385.601 50.8209 385.602 50.8155C385.602 50.8101 385.602 50.8046 385.603 50.7992C385.603 50.7938 385.603 50.7883 385.603 50.7829C385.604 50.7775 385.604 50.7721 385.604 50.7667C385.604 50.7612 385.605 50.7558 385.605 50.7504C385.605 50.745 385.605 50.7396 385.606 50.7342C385.606 50.7288 385.606 50.7234 385.607 50.718C385.607 50.7126 385.607 50.7072 385.607 50.7018C385.608 50.6964 385.608 50.691 385.608 50.6856C385.608 50.6802 385.609 50.6748 385.609 50.6694C385.609 50.6641 385.609 50.6587 385.61 50.6533C385.61 50.6479 385.61 50.6426 385.61 50.6372C385.611 50.6318 385.611 50.6264 385.611 50.6211C385.611 50.6157 385.612 50.6104 385.612 50.605C385.612 50.5996 385.613 50.5943 385.613 50.5889C385.613 50.5836 385.613 50.5782 385.614 50.5729C385.614 50.5675 385.614 50.5622 385.614 50.5569C385.615 50.5515 385.615 50.5462 385.615 50.5408C385.615 50.5355 385.616 50.5302 385.616 50.5249C385.616 50.5195 385.616 50.5142 385.617 50.5089C385.617 50.5036 385.617 50.4982 385.617 50.4929C385.618 50.4876 385.618 50.4823 385.618 50.477C385.619 50.4717 385.619 50.4664 385.619 50.4611C385.619 50.4558 385.62 50.4505 385.62 50.4452C385.62 50.4399 385.62 50.4346 385.621 50.4293C385.621 50.424 385.621 50.4187 385.621 50.4134C385.622 50.4081 385.622 50.4029 385.622 50.3976C385.622 50.3923 385.623 50.387 385.623 50.3818C385.623 50.3765 385.623 50.3712 385.624 50.3659C385.624 50.3607 385.624 50.3554 385.624 50.3502C385.625 50.3449 385.625 50.3396 385.625 50.3344C385.625 50.3291 385.626 50.3239 385.626 50.3186C385.626 50.3134 385.626 50.3081 385.627 50.3029C385.627 50.2977 385.627 50.2924 385.628 50.2872C385.628 50.2819 385.628 50.2767 385.628 50.2715C385.629 50.2663 385.629 50.261 385.629 50.2558C385.629 50.2506 385.63 50.2454 385.63 50.2401C385.63 50.2349 385.63 50.2297 385.631 50.2245C385.631 50.2193 385.631 50.2141 385.631 50.2089C385.632 50.2037 385.632 50.1985 385.632 50.1933C385.632 50.1881 385.633 50.1829 385.633 50.1777C385.633 50.1725 385.633 50.1673 385.634 50.1621C385.634 50.1569 385.634 50.1517 385.634 50.1466C385.635 50.1414 385.635 50.1362 385.635 50.131C385.635 50.1259 385.636 50.1207 385.636 50.1155C385.636 50.1103 385.636 50.1052 385.637 50.1C385.637 50.0949 385.637 50.0897 385.637 50.0845C385.638 50.0794 385.638 50.0742 385.638 50.0691C385.638 50.0639 385.639 50.0588 385.639 50.0536C385.639 50.0485 385.639 50.0433 385.64 50.0382C385.64 50.0331 385.64 50.0279 385.64 50.0228C385.641 50.0177 385.641 50.0125 385.641 50.0074C385.641 50.0023 385.642 49.9972 385.642 49.992C385.642 49.9869 385.642 49.9818 385.643 49.9767C385.643 49.9716 385.643 49.9665 385.643 49.9614C385.644 49.9563 385.644 49.9512 385.644 49.9461C385.644 49.941 385.645 49.9359 385.645 49.9308C385.645 49.9257 385.645 49.9206 385.646 49.9155C385.646 49.9104 385.646 49.9053 385.646 49.9002C385.647 49.8951 385.647 49.8901 385.647 49.885C385.647 49.8799 385.648 49.8748 385.648 49.8698C385.648 49.8647 385.648 49.8596 385.649 49.8546C385.649 49.8495 385.649 49.8444 385.649 49.8394C385.65 49.8343 385.65 49.8293 385.65 49.8242C385.65 49.8192 385.651 49.8141 385.651 49.8091C385.651 49.804 385.651 49.799 385.652 49.7939C385.652 49.7889 385.652 49.7839 385.652 49.7788C385.653 49.7738 385.653 49.7688 385.653 49.7637C385.653 49.7587 385.654 49.7537 385.654 49.7486C385.654 49.7436 385.654 49.7386 385.655 49.7336C385.655 49.7286 385.655 49.7236 385.655 49.7186C385.656 49.7135 385.656 49.7085 385.656 49.7035C385.656 49.6985 385.656 49.6935 385.657 49.6885C385.657 49.6835 385.657 49.6785 385.657 49.6735C385.658 49.6686 385.658 49.6636 385.658 49.6586C385.658 49.6536 385.659 49.6486 385.659 49.6436C385.659 49.6387 385.659 49.6337 385.66 49.6287C385.66 49.6237 385.66 49.6188 385.66 49.6138C385.661 49.6088 385.661 49.6039 385.661 49.5989C385.661 49.5939 385.662 49.589 385.662 49.584C385.662 49.5791 385.662 49.5741 385.663 49.5692C385.663 49.5642 385.663 49.5593 385.663 49.5543C385.664 49.5494 385.664 49.5445 385.664 49.5395C385.664 49.5346 385.664 49.5297 385.665 49.5247C385.665 49.5198 385.665 49.5149 385.665 49.5099C385.666 49.505 385.666 49.5001 385.666 49.4952C385.666 49.4903 385.667 49.4853 385.667 49.4804C385.667 49.4755 385.667 49.4706 385.668 49.4657C385.668 49.4608 385.668 49.4559 385.668 49.451C385.669 49.4461 385.669 49.4412 385.669 49.4363C385.669 49.4314 385.67 49.4265 385.67 49.4216C385.67 49.4167 385.67 49.4119 385.67 49.407C385.671 49.4021 385.671 49.3972 385.671 49.3923C385.671 49.3875 385.672 49.3826 385.672 49.3777C385.672 49.3729 385.672 49.368 385.673 49.3631C385.673 49.3583 385.673 49.3534 385.673 49.3485C385.674 49.3437 385.674 49.3388 385.674 49.334C385.674 49.3291 385.674 49.3243 385.675 49.3194C385.675 49.3146 385.675 49.3098 385.675 49.3049C385.676 49.3001 385.676 49.2952 385.676 49.2904C385.676 49.2856 385.677 49.2807 385.677 49.2759C385.677 49.2711 385.677 49.2663 385.678 49.2615C385.678 49.2566 385.678 49.2518 385.678 49.247C385.678 49.2422 385.679 49.2374 385.679 49.2326C385.679 49.2278 385.679 49.223 385.68 49.2181C385.68 49.2133 385.68 49.2085 385.68 49.2038C385.681 49.199 385.681 49.1942 385.681 49.1894C385.681 49.1846 385.682 49.1798 385.682 49.175C385.682 49.1702 385.682 49.1654 385.682 49.1607C385.683 49.1559 385.683 49.1511 385.683 49.1463C385.683 49.1416 385.684 49.1368 385.684 49.132C385.684 49.1273 385.684 49.1225 385.685 49.1178C385.685 49.113 385.685 49.1082 385.685 49.1035C385.685 49.0987 385.686 49.094 385.686 49.0892C385.686 49.0845 385.686 49.0797 385.687 49.075C385.687 49.0703 385.687 49.0655 385.687 49.0608C385.688 49.0561 385.688 49.0513 385.688 49.0466C385.688 49.0419 385.688 49.0371 385.689 49.0324C385.689 49.0277 385.689 49.023 385.689 49.0183C385.69 49.0135 385.69 49.0088 385.69 49.0041C385.69 48.9994 385.691 48.9947 385.691 48.99C385.691 48.9853 385.691 48.9806 385.691 48.9759C385.692 48.9712 385.692 48.9665 385.692 48.9618C385.692 48.9571 385.693 48.9524 385.693 48.9477C385.693 48.9431 385.693 48.9384 385.694 48.9337C385.694 48.929 385.694 48.9243 385.694 48.9197C385.694 48.915 385.695 48.9103 385.695 48.9057C385.695 48.901 385.695 48.8963 385.696 48.8917C385.696 48.887 385.696 48.8823 385.696 48.8777C385.697 48.873 385.697 48.8684 385.697 48.8637C385.697 48.8591 385.697 48.8544 385.698 48.8498C385.698 48.8451 385.698 48.8405 385.698 48.8359C385.699 48.8312 385.699 48.8266 385.699 48.822C385.699 48.8173 385.699 48.8127 385.7 48.8081C385.7 48.8035 385.7 48.7988 385.7 48.7942C385.701 48.7896 385.701 48.785 385.701 48.7804C385.701 48.7758 385.701 48.7711 385.702 48.7665C385.702 48.7619 385.702 48.7573 385.702 48.7527C385.703 48.7481 385.703 48.7435 385.703 48.7389C385.703 48.7343 385.703 48.7297 385.704 48.7252C385.704 48.7206 385.704 48.716 385.704 48.7114C385.705 48.7068 385.705 48.7022 385.705 48.6977C385.705 48.6931 385.706 48.6885 385.706 48.6839C385.706 48.6794 385.706 48.6748 385.706 48.6702C385.707 48.6657 385.707 48.6611 385.707 48.6566C385.707 48.652 385.708 48.6475 385.708 48.6429C385.708 48.6384 385.708 48.6338 385.708 48.6293C385.709 48.6247 385.709 48.6202 385.709 48.6156C385.709 48.6111 385.71 48.6066 385.71 48.602C385.71 48.5975 385.71 48.593 385.71 48.5884C385.711 48.5839 385.711 48.5794 385.711 48.5749C385.711 48.5703 385.711 48.5658 385.712 48.5613C385.712 48.5568 385.712 48.5523 385.712 48.5478C385.713 48.5433 385.713 48.5388 385.713 48.5343C385.713 48.5297 385.713 48.5252 385.714 48.5208C385.714 48.5163 385.714 48.5118 385.714 48.5073C385.715 48.5028 385.715 48.4983 385.715 48.4938C385.715 48.4893 385.715 48.4848 385.716 48.4804C385.716 48.4759 385.716 48.4714 385.716 48.4669C385.717 48.4625 385.717 48.458 385.717 48.4535C385.717 48.4491 385.717 48.4446 385.718 48.4401C385.718 48.4357 385.718 48.4312 385.718 48.4268C385.718 48.4223 385.719 48.4179 385.719 48.4134C385.719 48.409 385.719 48.4045 385.72 48.4001C385.72 48.3956 385.72 48.3912 385.72 48.3868C385.72 48.3823 385.721 48.3779 385.721 48.3735C385.721 48.369 385.721 48.3646 385.722 48.3602C385.722 48.3558 385.722 48.3514 385.722 48.3469C385.722 48.3425 385.723 48.3381 385.723 48.3337C385.723 48.3293 385.723 48.3249 385.723 48.3205C385.724 48.3161 385.724 48.3117 385.724 48.3073C385.724 48.3029 385.725 48.2985 385.725 48.2941C385.725 48.2897 385.725 48.2853 385.725 48.2809C385.726 48.2765 385.726 48.2721 385.726 48.2678C385.726 48.2634 385.726 48.259 385.727 48.2546C385.727 48.2503 385.727 48.2459 385.727 48.2415C385.728 48.2371 385.728 48.2328 385.728 48.2284C385.728 48.2241 385.728 48.2197 385.729 48.2153C385.729 48.211 385.729 48.2066 385.729 48.2023C385.729 48.1979 385.73 48.1936 385.73 48.1892C385.73 48.1849 385.73 48.1806 385.73 48.1762C385.731 48.1719 385.731 48.1675 385.731 48.1632C385.731 48.1589 385.732 48.1546 385.732 48.1502C385.732 48.1459 385.732 48.1416 385.732 48.1373C385.733 48.1329 385.733 48.1286 385.733 48.1243C385.733 48.12 385.733 48.1157 385.734 48.1114C385.734 48.1071 385.734 48.1028 385.734 48.0985C385.734 48.0942 385.735 48.0899 385.735 48.0856C385.735 48.0813 385.735 48.077 385.736 48.0727C385.736 48.0684 385.736 48.0641 385.736 48.0598C385.736 48.0556 385.737 48.0513 385.737 48.047C385.737 48.0427 385.737 48.0384 385.737 48.0342C385.738 48.0299 385.738 48.0256 385.738 48.0214C385.738 48.0171 385.738 48.0129 385.739 48.0086C385.739 48.0043 385.739 48.0001 385.739 47.9958C385.74 47.9916 385.74 47.9873 385.74 47.9831C385.74 47.9788 385.74 47.9746 385.741 47.9704C385.741 47.9661 385.741 47.9619 385.741 47.9576C385.741 47.9534 385.742 47.9492 385.742 47.9449C385.742 47.9407 385.742 47.9365 385.742 47.9323C385.743 47.9281 385.743 47.9238 385.743 47.9196C385.743 47.9154 385.743 47.9112 385.744 47.907C385.744 47.9028 385.744 47.8986 385.744 47.8944C385.744 47.8902 385.745 47.886 385.745 47.8818C385.745 47.8776 385.745 47.8734 385.745 47.8692C385.746 47.865 385.746 47.8608 385.746 47.8566C385.746 47.8524 385.746 47.8482 385.747 47.8441C385.747 47.8399 385.747 47.8357 385.747 47.8315C385.748 47.8274 385.748 47.8232 385.748 47.819C385.748 47.8149 385.748 47.8107 385.749 47.8065C385.749 47.8024 385.749 47.7982 385.749 47.7941C385.749 47.7899 385.75 47.7858 385.75 47.7816C385.75 47.7775 385.75 47.7733 385.75 47.7692C385.751 47.765 385.751 47.7609 385.751 47.7568C385.751 47.7526 385.751 47.7485 385.752 47.7444C385.752 47.7402 385.752 47.7361 385.752 47.732C385.752 47.7279 385.753 47.7237 385.753 47.7196C385.753 47.7155 385.753 47.7114 385.753 47.7073C385.754 47.7032 385.754 47.6991 385.754 47.6949C385.754 47.6908 385.754 47.6867 385.755 47.6826C385.755 47.6785 385.755 47.6744 385.755 47.6704C385.755 47.6663 385.756 47.6622 385.756 47.6581C385.756 47.654 385.756 47.6499 385.756 47.6458C385.757 47.6417 385.757 47.6377 385.757 47.6336C385.757 47.6295 385.757 47.6254 385.758 47.6214C385.758 47.6173 385.758 47.6132 385.758 47.6092C385.758 47.6051 385.759 47.6011 385.759 47.597C385.759 47.5929 385.759 47.5889 385.759 47.5848C385.76 47.5808 385.76 47.5767 385.76 47.5727C385.76 47.5687 385.76 47.5646 385.761 47.5606C385.761 47.5565 385.761 47.5525 385.761 47.5485C385.761 47.5444 385.762 47.5404 385.762 47.5364C385.762 47.5324 385.762 47.5283 385.762 47.5243C385.762 47.5203 385.763 47.5163 385.763 47.5123C385.763 47.5082 385.763 47.5042 385.763 47.5002C385.764 47.4962 385.764 47.4922 385.764 47.4882C385.764 47.4842 385.764 47.4802 385.765 47.4762C385.765 47.4722 385.765 47.4682 385.765 47.4642C385.765 47.4602 385.766 47.4563 385.766 47.4523C385.766 47.4483 385.766 47.4443 385.766 47.4403C385.767 47.4364 385.767 47.4324 385.767 47.4284C385.767 47.4244 385.767 47.4205 385.768 47.4165C385.768 47.4125 385.768 47.4086 385.768 47.4046C385.768 47.4007 385.769 47.3967 385.769 47.3928C385.769 47.3888 385.769 47.3849 385.769 47.3809C385.769 47.377 385.77 47.373 385.77 47.3691C385.77 47.3651 385.77 47.3612 385.77 47.3573C385.771 47.3533 385.771 47.3494 385.771 47.3455C385.771 47.3415 385.771 47.3376 385.772 47.3337C385.772 47.3298 385.772 47.3259 385.772 47.3219C385.772 47.318 385.773 47.3141 385.773 47.3102C385.773 47.3063 385.773 47.3024 385.773 47.2985C385.774 47.2946 385.774 47.2907 385.774 47.2868C385.774 47.2829 385.774 47.279 385.774 47.2751C385.775 47.2712 385.775 47.2673 385.775 47.2634C385.775 47.2595 385.775 47.2557 385.776 47.2518C385.776 47.2479 385.776 47.244 385.776 47.2401C385.776 47.2363 385.777 47.2324 385.777 47.2285C385.777 47.2247 385.777 47.2208 385.777 47.2169C385.777 47.2131 385.778 47.2092 385.778 47.2054C385.778 47.2015 385.778 47.1977 385.778 47.1938C385.779 47.19 385.779 47.1861 385.779 47.1823C385.779 47.1784 385.779 47.1746 385.78 47.1708C385.78 47.1669 385.78 47.1631 385.78 47.1593C385.78 47.1554 385.78 47.1516 385.781 47.1478C385.781 47.1439 385.781 47.1401 385.781 47.1363C385.781 47.1325 385.782 47.1287 385.782 47.1249C385.782 47.121 385.782 47.1172 385.782 47.1134C385.783 47.1096 385.783 47.1058 385.783 47.102C385.783 47.0982 385.783 47.0944 385.783 47.0906C385.784 47.0868 385.784 47.083 385.784 47.0793C385.784 47.0755 385.784 47.0717 385.785 47.0679C385.785 47.0641 385.785 47.0603 385.785 47.0566C385.785 47.0528 385.785 47.049 385.786 47.0453C385.786 47.0415 385.786 47.0377 385.786 47.034C385.786 47.0302 385.787 47.0264 385.787 47.0227C385.787 47.0189 385.787 47.0152 385.787 47.0114C385.787 47.0077 385.788 47.0039 385.788 47.0002C385.788 46.9964 385.788 46.9927 385.788 46.9889C385.789 46.9852 385.789 46.9815 385.789 46.9777C385.789 46.974 385.789 46.9703 385.79 46.9665C385.79 46.9628 385.79 46.9591 385.79 46.9554C385.79 46.9516 385.79 46.9479 385.791 46.9442C385.791 46.9405 385.791 46.9368 385.791 46.9331C385.791 46.9294 385.791 46.9257 385.792 46.922C385.792 46.9183 385.792 46.9146 385.792 46.9109C385.792 46.9072 385.793 46.9035 385.793 46.8998C385.793 46.8961 385.793 46.8924 385.793 46.8887C385.793 46.885 385.794 46.8814 385.794 46.8777C385.794 46.874 385.794 46.8703 385.794 46.8667C385.795 46.863 385.795 46.8593 385.795 46.8557C385.795 46.852 385.795 46.8483 385.795 46.8447C385.796 46.841 385.796 46.8373 385.796 46.8337C385.796 46.83 385.796 46.8264 385.797 46.8227C385.797 46.8191 385.797 46.8155 385.797 46.8118C385.797 46.8082 385.797 46.8045 385.798 46.8009C385.798 46.7973 385.798 46.7936 385.798 46.79C385.798 46.7864 385.798 46.7827 385.799 46.7791C385.799 46.7755 385.799 46.7719 385.799 46.7683C385.799 46.7646 385.8 46.761 385.8 46.7574C385.8 46.7538 385.8 46.7502 385.8 46.7466C385.8 46.743 385.801 46.7394 385.801 46.7358C385.801 46.7322 385.801 46.7286 385.801 46.725C385.801 46.7214 385.802 46.7178 385.802 46.7142C385.802 46.7107 385.802 46.7071 385.802 46.7035C385.803 46.6999 385.803 46.6963 385.803 46.6928C385.803 46.6892 385.803 46.6856 385.803 46.682C385.804 46.6785 385.804 46.6749 385.804 46.6714C385.804 46.6678 385.804 46.6642 385.804 46.6607C385.805 46.6571 385.805 46.6536 385.805 46.65C385.805 46.6465 385.805 46.6429 385.805 46.6394C385.806 46.6358 385.806 46.6323 385.806 46.6288C385.806 46.6252 385.806 46.6217 385.806 46.6182C385.807 46.6146 385.807 46.6111 385.807 46.6076C385.807 46.604 385.807 46.6005 385.808 46.597C385.808 46.5935 385.808 46.59 385.808 46.5865C385.808 46.5829 385.808 46.5794 385.809 46.5759C385.809 46.5724 385.809 46.5689 385.809 46.5654C385.809 46.5619 385.809 46.5584 385.81 46.5549C385.81 46.5514 385.81 46.5479 385.81 46.5444C385.81 46.541 385.81 46.5375 385.811 46.534C385.811 46.5305 385.811 46.527 385.811 46.5236C385.811 46.5201 385.811 46.5166 385.812 46.5131C385.812 46.5097 385.812 46.5062 385.812 46.5027C385.812 46.4993 385.812 46.4958 385.813 46.4923C385.813 46.4889 385.813 46.4854 385.813 46.482C385.813 46.4785 385.813 46.4751 385.814 46.4716C385.814 46.4682 385.814 46.4647 385.814 46.4613C385.814 46.4579 385.814 46.4544 385.815 46.451C385.815 46.4476 385.815 46.4441 385.815 46.4407C385.815 46.4373 385.815 46.4339 385.816 46.4304C385.816 46.427 385.816 46.4236 385.816 46.4202C385.816 46.4168 385.816 46.4134 385.817 46.4099C385.817 46.4065 385.817 46.4031 385.817 46.3997C385.817 46.3963 385.817 46.3929 385.818 46.3895C385.818 46.3861 385.818 46.3827 385.818 46.3793C385.818 46.376 385.818 46.3726 385.819 46.3692C385.819 46.3658 385.819 46.3624 385.819 46.359C385.819 46.3557 385.819 46.3523 385.82 46.3489C385.82 46.3455 385.82 46.3422 385.82 46.3388C385.82 46.3354 385.82 46.3321 385.821 46.3287C385.821 46.3253 385.821 46.322 385.821 46.3186C385.821 46.3153 385.821 46.3119 385.822 46.3086C385.822 46.3052 385.822 46.3019 385.822 46.2986C385.822 46.2952 385.822 46.2919 385.823 46.2885C385.823 46.2852 385.823 46.2819 385.823 46.2785C385.823 46.2752 385.823 46.2719 385.824 46.2686C385.824 46.2652 385.824 46.2619 385.824 46.2586C385.824 46.2553 385.824 46.252 385.825 46.2487C385.825 46.2453 385.825 46.242 385.825 46.2387C385.825 46.2354 385.825 46.2321 385.825 46.2288C385.826 46.2255 385.826 46.2222 385.826 46.2189C385.826 46.2156 385.826 46.2123 385.826 46.2091C385.827 46.2058 385.827 46.2025 385.827 46.1992C385.827 46.1959 385.827 46.1927 385.827 46.1894C385.828 46.1861 385.828 46.1828 385.828 46.1796C385.828 46.1763 385.828 46.173 385.828 46.1698C385.829 46.1665 385.829 46.1632 385.829 46.16C385.829 46.1567 385.829 46.1535 385.829 46.1502C385.829 46.147 385.83 46.1437 385.83 46.1405C385.83 46.1372 385.83 46.134 385.83 46.1308C385.83 46.1275 385.831 46.1243 385.831 46.1211C385.831 46.1178 385.831 46.1146 385.831 46.1114C385.831 46.1081 385.832 46.1049 385.832 46.1017C385.832 46.0985 385.832 46.0953 385.832 46.0921C385.832 46.0888 385.832 46.0856 385.833 46.0824C385.833 46.0792 385.833 46.076 385.833 46.0728C385.833 46.0696 385.833 46.0664 385.834 46.0632C385.834 46.06 385.834 46.0568 385.834 46.0536C385.834 46.0504 385.834 46.0473 385.835 46.0441C385.835 46.0409 385.835 46.0377 385.835 46.0345C385.835 46.0314 385.835 46.0282 385.835 46.025C385.836 46.0218 385.836 46.0187 385.836 46.0155C385.836 46.0123 385.836 46.0092 385.836 46.006C385.837 46.0029 385.837 45.9997 385.837 45.9966C385.837 45.9934 385.837 45.9903 385.837 45.9871C385.837 45.984 385.838 45.9808 385.838 45.9777C385.838 45.9745 385.838 45.9714 385.838 45.9683C385.838 45.9651 385.839 45.962 385.839 45.9589L383.841 45.8614C383.841 45.8646 383.841 45.8677 383.841 45.8708C383.84 45.874 383.84 45.8771 383.84 45.8802C383.84 45.8834 383.84 45.8865 383.84 45.8897C383.84 45.8928 383.839 45.896 383.839 45.8991C383.839 45.9023 383.839 45.9054 383.839 45.9086C383.839 45.9117 383.838 45.9149 383.838 45.9181C383.838 45.9212 383.838 45.9244 383.838 45.9276C383.838 45.9307 383.837 45.9339 383.837 45.9371C383.837 45.9403 383.837 45.9435 383.837 45.9466C383.837 45.9498 383.837 45.953 383.836 45.9562C383.836 45.9594 383.836 45.9626 383.836 45.9658C383.836 45.969 383.836 45.9722 383.835 45.9754C383.835 45.9786 383.835 45.9818 383.835 45.985C383.835 45.9882 383.835 45.9914 383.835 45.9946C383.834 45.9978 383.834 46.001 383.834 46.0043C383.834 46.0075 383.834 46.0107 383.834 46.0139C383.833 46.0172 383.833 46.0204 383.833 46.0236C383.833 46.0268 383.833 46.0301 383.833 46.0333C383.832 46.0366 383.832 46.0398 383.832 46.043C383.832 46.0463 383.832 46.0495 383.832 46.0528C383.832 46.056 383.831 46.0593 383.831 46.0625C383.831 46.0658 383.831 46.0691 383.831 46.0723C383.831 46.0756 383.83 46.0788 383.83 46.0821C383.83 46.0854 383.83 46.0887 383.83 46.0919C383.83 46.0952 383.829 46.0985 383.829 46.1018C383.829 46.105 383.829 46.1083 383.829 46.1116C383.829 46.1149 383.829 46.1182 383.828 46.1215C383.828 46.1248 383.828 46.1281 383.828 46.1314C383.828 46.1347 383.828 46.138 383.827 46.1413C383.827 46.1446 383.827 46.1479 383.827 46.1512C383.827 46.1545 383.827 46.1578 383.826 46.1611C383.826 46.1645 383.826 46.1678 383.826 46.1711C383.826 46.1744 383.826 46.1778 383.825 46.1811C383.825 46.1844 383.825 46.1878 383.825 46.1911C383.825 46.1944 383.825 46.1978 383.824 46.2011C383.824 46.2044 383.824 46.2078 383.824 46.2111C383.824 46.2145 383.824 46.2178 383.823 46.2212C383.823 46.2245 383.823 46.2279 383.823 46.2313C383.823 46.2346 383.823 46.238 383.822 46.2414C383.822 46.2447 383.822 46.2481 383.822 46.2515C383.822 46.2548 383.822 46.2582 383.822 46.2616C383.821 46.265 383.821 46.2683 383.821 46.2717C383.821 46.2751 383.821 46.2785 383.821 46.2819C383.82 46.2853 383.82 46.2887 383.82 46.2921C383.82 46.2955 383.82 46.2989 383.82 46.3023C383.819 46.3057 383.819 46.3091 383.819 46.3125C383.819 46.3159 383.819 46.3193 383.819 46.3227C383.818 46.3261 383.818 46.3296 383.818 46.333C383.818 46.3364 383.818 46.3398 383.818 46.3433C383.817 46.3467 383.817 46.3501 383.817 46.3536C383.817 46.357 383.817 46.3604 383.817 46.3639C383.816 46.3673 383.816 46.3707 383.816 46.3742C383.816 46.3776 383.816 46.3811 383.816 46.3845C383.815 46.388 383.815 46.3914 383.815 46.3949C383.815 46.3984 383.815 46.4018 383.815 46.4053C383.814 46.4087 383.814 46.4122 383.814 46.4157C383.814 46.4192 383.814 46.4226 383.813 46.4261C383.813 46.4296 383.813 46.4331 383.813 46.4365C383.813 46.44 383.813 46.4435 383.812 46.447C383.812 46.4505 383.812 46.454 383.812 46.4575C383.812 46.461 383.812 46.4645 383.811 46.468C383.811 46.4715 383.811 46.475 383.811 46.4785C383.811 46.482 383.811 46.4855 383.81 46.489C383.81 46.4925 383.81 46.496 383.81 46.4996C383.81 46.5031 383.81 46.5066 383.809 46.5101C383.809 46.5136 383.809 46.5172 383.809 46.5207C383.809 46.5242 383.809 46.5278 383.808 46.5313C383.808 46.5348 383.808 46.5384 383.808 46.5419C383.808 46.5455 383.807 46.549 383.807 46.5526C383.807 46.5561 383.807 46.5597 383.807 46.5632C383.807 46.5668 383.806 46.5703 383.806 46.5739C383.806 46.5775 383.806 46.581 383.806 46.5846C383.806 46.5882 383.805 46.5917 383.805 46.5953C383.805 46.5989 383.805 46.6025 383.805 46.606C383.805 46.6096 383.804 46.6132 383.804 46.6168C383.804 46.6204 383.804 46.624 383.804 46.6276C383.803 46.6312 383.803 46.6347 383.803 46.6383C383.803 46.6419 383.803 46.6455 383.803 46.6492C383.802 46.6528 383.802 46.6564 383.802 46.66C383.802 46.6636 383.802 46.6672 383.802 46.6708C383.801 46.6744 383.801 46.6781 383.801 46.6817C383.801 46.6853 383.801 46.6889 383.8 46.6926C383.8 46.6962 383.8 46.6998 383.8 46.7035C383.8 46.7071 383.8 46.7107 383.799 46.7144C383.799 46.718 383.799 46.7217 383.799 46.7253C383.799 46.7289 383.799 46.7326 383.798 46.7362C383.798 46.7399 383.798 46.7436 383.798 46.7472C383.798 46.7509 383.797 46.7545 383.797 46.7582C383.797 46.7619 383.797 46.7655 383.797 46.7692C383.797 46.7729 383.796 46.7766 383.796 46.7802C383.796 46.7839 383.796 46.7876 383.796 46.7913C383.795 46.795 383.795 46.7987 383.795 46.8023C383.795 46.806 383.795 46.8097 383.795 46.8134C383.794 46.8171 383.794 46.8208 383.794 46.8245C383.794 46.8282 383.794 46.8319 383.794 46.8356C383.793 46.8393 383.793 46.8431 383.793 46.8468C383.793 46.8505 383.793 46.8542 383.792 46.8579C383.792 46.8616 383.792 46.8654 383.792 46.8691C383.792 46.8728 383.792 46.8766 383.791 46.8803C383.791 46.884 383.791 46.8878 383.791 46.8915C383.791 46.8952 383.79 46.899 383.79 46.9027C383.79 46.9065 383.79 46.9102 383.79 46.914C383.79 46.9177 383.789 46.9215 383.789 46.9252C383.789 46.929 383.789 46.9327 383.789 46.9365C383.788 46.9403 383.788 46.944 383.788 46.9478C383.788 46.9516 383.788 46.9553 383.787 46.9591C383.787 46.9629 383.787 46.9667 383.787 46.9705C383.787 46.9742 383.787 46.978 383.786 46.9818C383.786 46.9856 383.786 46.9894 383.786 46.9932C383.786 46.997 383.785 47.0008 383.785 47.0046C383.785 47.0084 383.785 47.0122 383.785 47.016C383.785 47.0198 383.784 47.0236 383.784 47.0274C383.784 47.0312 383.784 47.035 383.784 47.0389C383.783 47.0427 383.783 47.0465 383.783 47.0503C383.783 47.0542 383.783 47.058 383.782 47.0618C383.782 47.0656 383.782 47.0695 383.782 47.0733C383.782 47.0771 383.782 47.081 383.781 47.0848C383.781 47.0887 383.781 47.0925 383.781 47.0964C383.781 47.1002 383.78 47.1041 383.78 47.1079C383.78 47.1118 383.78 47.1156 383.78 47.1195C383.779 47.1234 383.779 47.1272 383.779 47.1311C383.779 47.135 383.779 47.1388 383.779 47.1427C383.778 47.1466 383.778 47.1505 383.778 47.1543C383.778 47.1582 383.778 47.1621 383.777 47.166C383.777 47.1699 383.777 47.1738 383.777 47.1776C383.777 47.1815 383.776 47.1854 383.776 47.1893C383.776 47.1932 383.776 47.1971 383.776 47.201C383.775 47.2049 383.775 47.2088 383.775 47.2128C383.775 47.2167 383.775 47.2206 383.775 47.2245C383.774 47.2284 383.774 47.2323 383.774 47.2362C383.774 47.2402 383.774 47.2441 383.773 47.248C383.773 47.252 383.773 47.2559 383.773 47.2598C383.773 47.2638 383.772 47.2677 383.772 47.2716C383.772 47.2756 383.772 47.2795 383.772 47.2835C383.771 47.2874 383.771 47.2914 383.771 47.2953C383.771 47.2993 383.771 47.3032 383.771 47.3072C383.77 47.3111 383.77 47.3151 383.77 47.3191C383.77 47.323 383.77 47.327 383.769 47.331C383.769 47.3349 383.769 47.3389 383.769 47.3429C383.769 47.3469 383.768 47.3509 383.768 47.3548C383.768 47.3588 383.768 47.3628 383.768 47.3668C383.767 47.3708 383.767 47.3748 383.767 47.3788C383.767 47.3828 383.767 47.3868 383.766 47.3908C383.766 47.3948 383.766 47.3988 383.766 47.4028C383.766 47.4068 383.765 47.4108 383.765 47.4148C383.765 47.4188 383.765 47.4228 383.765 47.4269C383.764 47.4309 383.764 47.4349 383.764 47.4389C383.764 47.443 383.764 47.447 383.763 47.451C383.763 47.4551 383.763 47.4591 383.763 47.4631C383.763 47.4672 383.763 47.4712 383.762 47.4753C383.762 47.4793 383.762 47.4833 383.762 47.4874C383.762 47.4914 383.761 47.4955 383.761 47.4996C383.761 47.5036 383.761 47.5077 383.761 47.5117C383.76 47.5158 383.76 47.5199 383.76 47.5239C383.76 47.528 383.76 47.5321 383.759 47.5361C383.759 47.5402 383.759 47.5443 383.759 47.5484C383.759 47.5525 383.758 47.5565 383.758 47.5606C383.758 47.5647 383.758 47.5688 383.758 47.5729C383.757 47.577 383.757 47.5811 383.757 47.5852C383.757 47.5893 383.757 47.5934 383.756 47.5975C383.756 47.6016 383.756 47.6057 383.756 47.6098C383.756 47.6139 383.755 47.6181 383.755 47.6222C383.755 47.6263 383.755 47.6304 383.755 47.6345C383.754 47.6387 383.754 47.6428 383.754 47.6469C383.754 47.651 383.754 47.6552 383.753 47.6593C383.753 47.6635 383.753 47.6676 383.753 47.6717C383.753 47.6759 383.752 47.68 383.752 47.6842C383.752 47.6883 383.752 47.6925 383.752 47.6966C383.751 47.7008 383.751 47.7049 383.751 47.7091C383.751 47.7133 383.75 47.7174 383.75 47.7216C383.75 47.7258 383.75 47.7299 383.75 47.7341C383.749 47.7383 383.749 47.7424 383.749 47.7466C383.749 47.7508 383.749 47.755 383.748 47.7592C383.748 47.7634 383.748 47.7675 383.748 47.7717C383.748 47.7759 383.747 47.7801 383.747 47.7843C383.747 47.7885 383.747 47.7927 383.747 47.7969C383.746 47.8011 383.746 47.8053 383.746 47.8095C383.746 47.8137 383.746 47.818 383.745 47.8222C383.745 47.8264 383.745 47.8306 383.745 47.8348C383.745 47.839 383.744 47.8433 383.744 47.8475C383.744 47.8517 383.744 47.856 383.744 47.8602C383.743 47.8644 383.743 47.8687 383.743 47.8729C383.743 47.8771 383.742 47.8814 383.742 47.8856C383.742 47.8899 383.742 47.8941 383.742 47.8984C383.741 47.9026 383.741 47.9069 383.741 47.9111C383.741 47.9154 383.741 47.9197 383.74 47.9239C383.74 47.9282 383.74 47.9325 383.74 47.9367C383.74 47.941 383.739 47.9453 383.739 47.9496C383.739 47.9538 383.739 47.9581 383.739 47.9624C383.738 47.9667 383.738 47.971 383.738 47.9753C383.738 47.9795 383.737 47.9838 383.737 47.9881C383.737 47.9924 383.737 47.9967 383.737 48.001C383.736 48.0053 383.736 48.0096 383.736 48.0139C383.736 48.0182 383.736 48.0226 383.735 48.0269C383.735 48.0312 383.735 48.0355 383.735 48.0398C383.735 48.0441 383.734 48.0485 383.734 48.0528C383.734 48.0571 383.734 48.0614 383.734 48.0658C383.733 48.0701 383.733 48.0744 383.733 48.0788C383.733 48.0831 383.732 48.0874 383.732 48.0918C383.732 48.0961 383.732 48.1005 383.732 48.1048C383.731 48.1092 383.731 48.1135 383.731 48.1179C383.731 48.1222 383.731 48.1266 383.73 48.131C383.73 48.1353 383.73 48.1397 383.73 48.1441C383.729 48.1484 383.729 48.1528 383.729 48.1572C383.729 48.1616 383.729 48.1659 383.728 48.1703C383.728 48.1747 383.728 48.1791 383.728 48.1835C383.728 48.1878 383.727 48.1922 383.727 48.1966C383.727 48.201 383.727 48.2054 383.726 48.2098C383.726 48.2142 383.726 48.2186 383.726 48.223C383.726 48.2274 383.725 48.2318 383.725 48.2362C383.725 48.2407 383.725 48.2451 383.725 48.2495C383.724 48.2539 383.724 48.2583 383.724 48.2628C383.724 48.2672 383.723 48.2716 383.723 48.276C383.723 48.2805 383.723 48.2849 383.723 48.2893C383.722 48.2938 383.722 48.2982 383.722 48.3026C383.722 48.3071 383.722 48.3115 383.721 48.316C383.721 48.3204 383.721 48.3249 383.721 48.3293C383.72 48.3338 383.72 48.3382 383.72 48.3427C383.72 48.3472 383.72 48.3516 383.719 48.3561C383.719 48.3606 383.719 48.365 383.719 48.3695C383.718 48.374 383.718 48.3784 383.718 48.3829C383.718 48.3874 383.718 48.3919 383.717 48.3964C383.717 48.4008 383.717 48.4053 383.717 48.4098C383.717 48.4143 383.716 48.4188 383.716 48.4233C383.716 48.4278 383.716 48.4323 383.715 48.4368C383.715 48.4413 383.715 48.4458 383.715 48.4503C383.715 48.4548 383.714 48.4593 383.714 48.4639C383.714 48.4684 383.714 48.4729 383.713 48.4774C383.713 48.4819 383.713 48.4865 383.713 48.491C383.713 48.4955 383.712 48.5 383.712 48.5046C383.712 48.5091 383.712 48.5136 383.711 48.5182C383.711 48.5227 383.711 48.5273 383.711 48.5318C383.711 48.5364 383.71 48.5409 383.71 48.5455C383.71 48.55 383.71 48.5546 383.709 48.5591C383.709 48.5637 383.709 48.5682 383.709 48.5728C383.709 48.5774 383.708 48.5819 383.708 48.5865C383.708 48.5911 383.708 48.5956 383.707 48.6002C383.707 48.6048 383.707 48.6094 383.707 48.614C383.707 48.6185 383.706 48.6231 383.706 48.6277C383.706 48.6323 383.706 48.6369 383.705 48.6415C383.705 48.6461 383.705 48.6507 383.705 48.6553C383.705 48.6599 383.704 48.6645 383.704 48.6691C383.704 48.6737 383.704 48.6783 383.703 48.6829C383.703 48.6875 383.703 48.6921 383.703 48.6968C383.702 48.7014 383.702 48.706 383.702 48.7106C383.702 48.7153 383.702 48.7199 383.701 48.7245C383.701 48.7291 383.701 48.7338 383.701 48.7384C383.7 48.7431 383.7 48.7477 383.7 48.7523C383.7 48.757 383.7 48.7616 383.699 48.7663C383.699 48.7709 383.699 48.7756 383.699 48.7802C383.698 48.7849 383.698 48.7895 383.698 48.7942C383.698 48.7989 383.698 48.8035 383.697 48.8082C383.697 48.8129 383.697 48.8175 383.697 48.8222C383.696 48.8269 383.696 48.8316 383.696 48.8362C383.696 48.8409 383.695 48.8456 383.695 48.8503C383.695 48.855 383.695 48.8597 383.695 48.8644C383.694 48.8691 383.694 48.8738 383.694 48.8784C383.694 48.8831 383.693 48.8878 383.693 48.8926C383.693 48.8973 383.693 48.902 383.692 48.9067C383.692 48.9114 383.692 48.9161 383.692 48.9208C383.692 48.9255 383.691 48.9303 383.691 48.935C383.691 48.9397 383.691 48.9444 383.69 48.9492C383.69 48.9539 383.69 48.9586 383.69 48.9633C383.689 48.9681 383.689 48.9728 383.689 48.9776C383.689 48.9823 383.689 48.987 383.688 48.9918C383.688 48.9965 383.688 49.0013 383.688 49.006C383.687 49.0108 383.687 49.0156 383.687 49.0203C383.687 49.0251 383.686 49.0298 383.686 49.0346C383.686 49.0394 383.686 49.0441 383.686 49.0489C383.685 49.0537 383.685 49.0584 383.685 49.0632C383.685 49.068 383.684 49.0728 383.684 49.0776C383.684 49.0824 383.684 49.0871 383.683 49.0919C383.683 49.0967 383.683 49.1015 383.683 49.1063C383.683 49.1111 383.682 49.1159 383.682 49.1207C383.682 49.1255 383.682 49.1303 383.681 49.1351C383.681 49.1399 383.681 49.1447 383.681 49.1496C383.68 49.1544 383.68 49.1592 383.68 49.164C383.68 49.1688 383.679 49.1736 383.679 49.1785C383.679 49.1833 383.679 49.1881 383.679 49.193C383.678 49.1978 383.678 49.2026 383.678 49.2075C383.678 49.2123 383.677 49.2172 383.677 49.222C383.677 49.2268 383.677 49.2317 383.676 49.2365C383.676 49.2414 383.676 49.2462 383.676 49.2511C383.675 49.256 383.675 49.2608 383.675 49.2657C383.675 49.2705 383.674 49.2754 383.674 49.2803C383.674 49.2852 383.674 49.29 383.674 49.2949C383.673 49.2998 383.673 49.3047 383.673 49.3095C383.673 49.3144 383.672 49.3193 383.672 49.3242C383.672 49.3291 383.672 49.334 383.671 49.3389C383.671 49.3438 383.671 49.3486 383.671 49.3535C383.67 49.3584 383.67 49.3634 383.67 49.3683C383.67 49.3732 383.669 49.3781 383.669 49.383C383.669 49.3879 383.669 49.3928 383.669 49.3977C383.668 49.4026 383.668 49.4076 383.668 49.4125C383.668 49.4174 383.667 49.4223 383.667 49.4273C383.667 49.4322 383.667 49.4371 383.666 49.4421C383.666 49.447 383.666 49.452 383.666 49.4569C383.665 49.4618 383.665 49.4668 383.665 49.4717C383.665 49.4767 383.664 49.4816 383.664 49.4866C383.664 49.4915 383.664 49.4965 383.663 49.5015C383.663 49.5064 383.663 49.5114 383.663 49.5164C383.663 49.5213 383.662 49.5263 383.662 49.5313C383.662 49.5362 383.662 49.5412 383.661 49.5462C383.661 49.5512 383.661 49.5562 383.661 49.5611C383.66 49.5661 383.66 49.5711 383.66 49.5761C383.66 49.5811 383.659 49.5861 383.659 49.5911C383.659 49.5961 383.659 49.6011 383.658 49.6061C383.658 49.6111 383.658 49.6161 383.658 49.6211C383.657 49.6261 383.657 49.6311 383.657 49.6361C383.657 49.6412 383.656 49.6462 383.656 49.6512C383.656 49.6562 383.656 49.6612 383.655 49.6663C383.655 49.6713 383.655 49.6763 383.655 49.6814C383.654 49.6864 383.654 49.6914 383.654 49.6965C383.654 49.7015 383.653 49.7066 383.653 49.7116C383.653 49.7167 383.653 49.7217 383.652 49.7268C383.652 49.7318 383.652 49.7369 383.652 49.7419C383.651 49.747 383.651 49.752 383.651 49.7571C383.651 49.7622 383.651 49.7672 383.65 49.7723C383.65 49.7774 383.65 49.7825 383.65 49.7875C383.649 49.7926 383.649 49.7977 383.649 49.8028C383.649 49.8079 383.648 49.8129 383.648 49.818C383.648 49.8231 383.648 49.8282 383.647 49.8333C383.647 49.8384 383.647 49.8435 383.647 49.8486C383.646 49.8537 383.646 49.8588 383.646 49.8639C383.646 49.869 383.645 49.8741 383.645 49.8793C383.645 49.8844 383.645 49.8895 383.644 49.8946C383.644 49.8997 383.644 49.9048 383.644 49.91C383.643 49.9151 383.643 49.9202 383.643 49.9254C383.643 49.9305 383.642 49.9356 383.642 49.9408C383.642 49.9459 383.642 49.951 383.641 49.9562C383.641 49.9613 383.641 49.9665 383.641 49.9716C383.64 49.9768 383.64 49.9819 383.64 49.9871C383.64 49.9922 383.639 49.9974 383.639 50.0026C383.639 50.0077 383.639 50.0129 383.638 50.0181C383.638 50.0232 383.638 50.0284 383.638 50.0336C383.637 50.0388 383.637 50.0439 383.637 50.0491C383.637 50.0543 383.636 50.0595 383.636 50.0647C383.636 50.0699 383.635 50.075 383.635 50.0802C383.635 50.0854 383.635 50.0906 383.634 50.0958C383.634 50.101 383.634 50.1062 383.634 50.1114C383.633 50.1166 383.633 50.1218 383.633 50.1271C383.633 50.1323 383.632 50.1375 383.632 50.1427C383.632 50.1479 383.632 50.1531 383.631 50.1584C383.631 50.1636 383.631 50.1688 383.631 50.174C383.63 50.1793 383.63 50.1845 383.63 50.1897C383.63 50.195 383.629 50.2002 383.629 50.2055C383.629 50.2107 383.629 50.2159 383.628 50.2212C383.628 50.2264 383.628 50.2317 383.628 50.2369C383.627 50.2422 383.627 50.2475 383.627 50.2527C383.627 50.258 383.626 50.2632 383.626 50.2685C383.626 50.2738 383.626 50.279 383.625 50.2843C383.625 50.2896 383.625 50.2949 383.625 50.3001C383.624 50.3054 383.624 50.3107 383.624 50.316C383.623 50.3213 383.623 50.3266 383.623 50.3318C383.623 50.3371 383.622 50.3424 383.622 50.3477C383.622 50.353 383.622 50.3583 383.621 50.3636C383.621 50.3689 383.621 50.3742 383.621 50.3795C383.62 50.3849 383.62 50.3902 383.62 50.3955C383.62 50.4008 383.619 50.4061 383.619 50.4114C383.619 50.4168 383.619 50.4221 383.618 50.4274C383.618 50.4327 383.618 50.4381 383.618 50.4434C383.617 50.4487 383.617 50.4541 383.617 50.4594C383.616 50.4648 383.616 50.4701 383.616 50.4754C383.616 50.4808 383.615 50.4861 383.615 50.4915C383.615 50.4968 383.615 50.5022 383.614 50.5076C383.614 50.5129 383.614 50.5183 383.614 50.5236C383.613 50.529 383.613 50.5344 383.613 50.5397C383.613 50.5451 383.612 50.5505 383.612 50.5559C383.612 50.5612 383.612 50.5666 383.611 50.572C383.611 50.5774 383.611 50.5828 383.61 50.5882C383.61 50.5935 383.61 50.5989 383.61 50.6043C383.609 50.6097 383.609 50.6151 383.609 50.6205C383.609 50.6259 383.608 50.6313 383.608 50.6367C383.608 50.6421 383.608 50.6475 383.607 50.653C383.607 50.6584 383.607 50.6638 383.607 50.6692C383.606 50.6746 383.606 50.6801 383.606 50.6855C383.605 50.6909 383.605 50.6963 383.605 50.7018C383.605 50.7072 383.604 50.7126 383.604 50.7181C383.604 50.7235 383.604 50.7289 383.603 50.7344C383.603 50.7398 383.603 50.7453 383.603 50.7507C383.602 50.7562 383.602 50.7616 383.602 50.7671C383.601 50.7725 383.601 50.778 383.601 50.7835C383.601 50.7889 383.6 50.7944 383.6 50.7999C383.6 50.8053 383.6 50.8108 383.599 50.8163C383.599 50.8217 383.599 50.8272 383.599 50.8327C383.598 50.8382 383.598 50.8437 383.598 50.8491C383.597 50.8546 383.597 50.8601 383.597 50.8656C383.597 50.8711 383.596 50.8766 383.596 50.8821C383.596 50.8876 383.596 50.8931 383.595 50.8986C383.595 50.9041 383.595 50.9096 383.595 50.9151C383.594 50.9206 383.594 50.9262 383.594 50.9317C383.593 50.9372 383.593 50.9427 383.593 50.9482C383.593 50.9538 383.592 50.9593 383.592 50.9648C383.592 50.9703 383.592 50.9759 383.591 50.9814C383.591 50.9869 383.591 50.9925 383.59 50.998C383.59 51.0036 383.59 51.0091 383.59 51.0147C383.589 51.0202 383.589 51.0258 383.589 51.0313C383.589 51.0369 383.588 51.0424 383.588 51.048C383.588 51.0535 383.587 51.0591 383.587 51.0647C383.587 51.0702 383.587 51.0758 383.586 51.0814C383.586 51.0869 383.586 51.0925 383.586 51.0981C383.585 51.1037 383.585 51.1093 383.585 51.1148C383.584 51.1204 383.584 51.126 383.584 51.1316C383.584 51.1372 383.583 51.1428 383.583 51.1484C383.583 51.154 383.583 51.1596 383.582 51.1652C383.582 51.1708 383.582 51.1764 383.581 51.182C383.581 51.1876 383.581 51.1932 383.581 51.1988C383.58 51.2044 383.58 51.2101 383.58 51.2157C383.58 51.2213 383.579 51.2269 383.579 51.2326C383.579 51.2382 383.578 51.2438 383.578 51.2494C383.578 51.2551 383.578 51.2607 383.577 51.2663C383.577 51.272 383.577 51.2776 383.577 51.2833C383.576 51.2889 383.576 51.2946 383.576 51.3002C383.575 51.3059 383.575 51.3115 383.575 51.3172C383.575 51.3228 383.574 51.3285 383.574 51.3342C383.574 51.3398 383.574 51.3455 383.573 51.3512C383.573 51.3568 383.573 51.3625 383.572 51.3682C383.572 51.3739 383.572 51.3795 383.572 51.3852C383.571 51.3909 383.571 51.3966 383.571 51.4023C383.57 51.408 383.57 51.4137 383.57 51.4193C383.57 51.425 383.569 51.4307 383.569 51.4364C383.569 51.4421 383.569 51.4478 383.568 51.4535C383.568 51.4593 383.568 51.465 383.567 51.4707C383.567 51.4764 383.567 51.4821 383.567 51.4878C383.566 51.4935 383.566 51.4993 383.566 51.505C383.565 51.5107 383.565 51.5164 383.565 51.5222C383.565 51.5279 383.564 51.5336 383.564 51.5394C383.564 51.5451 383.563 51.5508 383.563 51.5566C383.563 51.5623 383.563 51.5681 383.562 51.5738C383.562 51.5796 383.562 51.5853 383.562 51.5911C383.561 51.5968 383.561 51.6026 383.561 51.6084C383.56 51.6141 383.56 51.6199 383.56 51.6257C383.56 51.6314 383.559 51.6372 383.559 51.643C383.559 51.6487 383.558 51.6545 383.558 51.6603C383.558 51.6661 383.558 51.6719 383.557 51.6776C383.557 51.6834 383.557 51.6892 383.556 51.695C383.556 51.7008 383.556 51.7066 383.556 51.7124C383.555 51.7182 383.555 51.724 383.555 51.7298C383.554 51.7356 383.554 51.7414 383.554 51.7472C383.554 51.753 383.553 51.7588 383.553 51.7647C383.553 51.7705 383.553 51.7763 383.552 51.7821C383.552 51.7879 383.552 51.7938 383.551 51.7996C383.551 51.8054 383.551 51.8112 383.551 51.8171C383.55 51.8229 383.55 51.8288 383.55 51.8346C383.549 51.8404 383.549 51.8463 383.549 51.8521C383.549 51.858 383.548 51.8638 383.548 51.8697C383.548 51.8755 383.547 51.8814 383.547 51.8872C383.547 51.8931 383.547 51.899 383.546 51.9048C383.546 51.9107 383.546 51.9166 383.545 51.9224C383.545 51.9283 383.545 51.9342 383.545 51.9401C383.544 51.9459 383.544 51.9518 383.544 51.9577C383.543 51.9636 383.543 51.9695 383.543 51.9754C383.543 51.9812 383.542 51.9871 383.542 51.993C383.542 51.9989 383.541 52.0048 383.541 52.0107C383.541 52.0166 383.54 52.0225 383.54 52.0284C383.54 52.0344 383.54 52.0403 383.539 52.0462C383.539 52.0521 383.539 52.058 383.538 52.0639C383.538 52.0698 383.538 52.0758 383.538 52.0817C383.537 52.0876 383.537 52.0936 383.537 52.0995C383.536 52.1054 383.536 52.1114 383.536 52.1173C383.536 52.1232 383.535 52.1292 383.535 52.1351C383.535 52.1411 383.534 52.147 383.534 52.153C383.534 52.1589 383.534 52.1649 383.533 52.1708C383.533 52.1768 383.533 52.1827 383.532 52.1887C383.532 52.1947 383.532 52.2006 383.532 52.2066C383.531 52.2126 383.531 52.2185 383.531 52.2245C383.53 52.2305 383.53 52.2365 383.53 52.2424C383.529 52.2484 383.529 52.2544 383.529 52.2604C383.529 52.2664 383.528 52.2724 383.528 52.2784C383.528 52.2844 383.527 52.2904 383.527 52.2964C383.527 52.3024 383.527 52.3084 383.526 52.3144C383.526 52.3204 383.526 52.3264 383.525 52.3324C383.525 52.3384 383.525 52.3444 383.524 52.3504C383.524 52.3565 383.524 52.3625 383.524 52.3685C383.523 52.3745 383.523 52.3806 383.523 52.3866C383.522 52.3926 383.522 52.3986 383.522 52.4047C383.522 52.4107 383.521 52.4168 383.521 52.4228C383.521 52.4288 383.52 52.4349 383.52 52.4409C383.52 52.447 383.519 52.453 383.519 52.4591C383.519 52.4651 383.519 52.4712 383.518 52.4773C383.518 52.4833 383.518 52.4894 383.517 52.4955C383.517 52.5015 383.517 52.5076 383.517 52.5137C383.516 52.5197 383.516 52.5258 383.516 52.5319C383.515 52.538 383.515 52.5441 383.515 52.5501C383.514 52.5562 383.514 52.5623 383.514 52.5684C383.514 52.5745 383.513 52.5806 383.513 52.5867C383.513 52.5928 383.512 52.5989 383.512 52.605C383.512 52.6111 383.511 52.6172 383.511 52.6233C383.511 52.6294 383.511 52.6355 383.51 52.6416C383.51 52.6478 383.51 52.6539 383.509 52.66C383.509 52.6661 383.509 52.6722 383.508 52.6784C383.508 52.6845 383.508 52.6906 383.508 52.6968C383.507 52.7029 383.507 52.709 383.507 52.7152C383.506 52.7213 383.506 52.7275 383.506 52.7336C383.506 52.7398 383.505 52.7459 383.505 52.7521C383.505 52.7582 383.504 52.7644 383.504 52.7705C383.504 52.7767 383.503 52.7828 383.503 52.789C383.503 52.7952 383.502 52.8013 383.502 52.8075C383.502 52.8137 383.502 52.8198 383.501 52.826C383.501 52.8322 383.501 52.8384 383.5 52.8446C383.5 52.8507 383.5 52.8569 383.499 52.8631C383.499 52.8693 383.499 52.8755 383.499 52.8817C383.498 52.8879 383.498 52.8941 383.498 52.9003C383.497 52.9065 383.497 52.9127 383.497 52.9189C383.496 52.9251 383.496 52.9313 383.496 52.9375C383.496 52.9437 383.495 52.95 383.495 52.9562C383.495 52.9624 383.494 52.9686 383.494 52.9749C383.494 52.9811 383.493 52.9873 383.493 52.9935C383.493 52.9998 383.493 53.006 383.492 53.0122C383.492 53.0185 383.492 53.0247 383.491 53.031C383.491 53.0372 383.491 53.0435 383.49 53.0497C383.49 53.056 383.49 53.0622 383.489 53.0685L385.487 53.1659ZM384.84 44.9102H384.312V46.9102H384.84V44.9102ZM383.363 45.5974L361.273 112.687L363.172 113.313L385.262 46.2229L383.363 45.5974ZM362.223 112H345.582V114H362.223V112ZM422.516 113H421.516V114H422.516V113ZM422.516 27.3359V26.3359H421.516V27.3359H422.516ZM440.68 27.3359H441.68V26.3359H440.68V27.3359ZM440.68 113V114H441.68V113H440.68ZM423.516 113V27.3359H421.516V113H423.516ZM422.516 28.3359L440.68 28.3359V26.3359L422.516 26.3359V28.3359ZM439.68 27.3359V113H441.68V27.3359H439.68ZM440.68 112H422.516V114H440.68V112ZM489.371 43.2734L489.818 44.1679L489.823 44.1653L489.371 43.2734ZM482.633 49.0742L481.822 48.4882L481.817 48.4965L482.633 49.0742ZM479.352 85.9297L478.406 86.2562L478.41 86.2666L479.352 85.9297ZM486.383 95.7148L485.801 96.5279L485.807 96.5327L486.383 95.7148ZM509.059 97.8828L508.842 96.9066L508.839 96.9071L509.059 97.8828ZM520.484 94.543H521.484V93.1303L520.152 93.5998L520.484 94.543ZM520.484 109.777L520.866 110.702L521.484 110.447V109.777H520.484ZM509.293 113.117L509.115 112.133L509.105 112.135L509.293 113.117ZM475.133 108.723L474.589 109.562L474.596 109.566L475.133 108.723ZM462.535 93.3711L461.611 93.7538L461.612 93.7557L462.535 93.3711ZM511.402 27.7461L511.154 28.7147L511.164 28.7173L511.402 27.7461ZM523.707 32.1406L524.637 32.5095L524.98 31.6427L524.14 31.2391L523.707 32.1406ZM517.848 46.9062L517.418 47.8093L518.383 48.2682L518.777 47.2751L517.848 46.9062ZM498.629 40.2227C495.019 40.2227 491.774 40.9333 488.919 42.3816L489.823 44.1653C492.359 42.8792 495.286 42.2227 498.629 42.2227V40.2227ZM488.924 42.379C486.116 43.7832 483.747 45.826 481.822 48.4883L483.443 49.6602C485.19 47.2443 487.314 45.4199 489.818 44.1679L488.924 42.379ZM481.817 48.4965C479.938 51.1511 478.526 54.3327 477.564 58.021L479.499 58.5259C480.412 55.0267 481.734 52.0755 483.449 49.6519L481.817 48.4965ZM477.564 58.021C476.601 61.7123 476.125 65.8421 476.125 70.4023H478.125C478.125 65.9782 478.587 62.0221 479.499 58.5259L477.564 58.021ZM476.125 70.4023C476.125 76.5336 476.876 81.8259 478.406 86.2562L480.297 85.6032C478.858 81.4397 478.125 76.3805 478.125 70.4023H476.125ZM478.41 86.2666C479.991 90.684 482.446 94.1255 485.801 96.5279L486.965 94.9018C483.992 92.773 481.759 89.691 480.293 85.5928L478.41 86.2666ZM485.807 96.5327C489.183 98.9082 493.483 100.055 498.629 100.055V98.0547C493.775 98.0547 489.911 96.9746 486.958 94.897L485.807 96.5327ZM498.629 100.055C502.181 100.055 505.731 99.6555 509.278 98.8585L508.839 96.9071C505.433 97.6726 502.03 98.0547 498.629 98.0547V100.055ZM509.276 98.859C512.837 98.0675 516.685 96.9421 520.817 95.4861L520.152 93.5998C516.081 95.0344 512.311 96.1356 508.842 96.9066L509.276 98.859ZM519.484 94.543V109.777H521.484V94.543H519.484ZM520.103 108.853C516.373 110.391 512.711 111.483 509.115 112.133L509.471 114.101C513.219 113.423 517.017 112.289 520.866 110.702L520.103 108.853ZM509.105 112.135C505.507 112.824 501.45 113.172 496.93 113.172V115.172C501.55 115.172 505.735 114.817 509.481 114.099L509.105 112.135ZM496.93 113.172C488.235 113.172 481.17 111.383 475.67 107.879L474.596 109.566C480.501 113.328 487.968 115.172 496.93 115.172V113.172ZM475.677 107.884C470.191 104.327 466.119 99.3732 463.458 92.9865L461.612 93.7557C464.42 100.494 468.746 105.774 474.589 109.562L475.677 107.884ZM463.459 92.9884C460.785 86.5326 459.434 78.9722 459.434 70.2852H457.434C457.434 79.1762 458.817 87.0064 461.611 93.7538L463.459 92.9884ZM459.434 70.2852C459.434 63.8912 460.3 58.06 462.021 52.7827L460.12 52.1626C458.325 57.6666 457.434 63.7103 457.434 70.2852H459.434ZM462.021 52.7827C463.741 47.5066 466.258 42.9578 469.562 39.1214L468.047 37.8161C464.555 41.8703 461.915 46.6574 460.12 52.1626L462.021 52.7827ZM469.562 39.1214C472.857 35.2964 476.93 32.3381 481.797 30.2469L481.008 28.4094C475.874 30.615 471.549 33.7504 468.047 37.8161L469.562 39.1214ZM481.797 30.2469C486.651 28.1613 492.255 27.1055 498.629 27.1055V25.1055C492.034 25.1055 486.154 26.1981 481.008 28.4094L481.797 30.2469ZM498.629 27.1055C502.8 27.1055 506.974 27.6411 511.154 28.7146L511.651 26.7775C507.315 25.6636 502.973 25.1055 498.629 25.1055V27.1055ZM511.164 28.7173C515.395 29.7559 519.432 31.1976 523.274 33.0421L524.14 31.2391C520.17 29.3336 516.003 27.8457 511.641 26.7749L511.164 28.7173ZM522.778 31.7718L516.918 46.5374L518.777 47.2751L524.637 32.5095L522.778 31.7718ZM518.277 46.0032C515.043 44.4648 511.787 43.1229 508.51 41.9778L507.85 43.8659C511.057 44.9865 514.246 46.3008 517.418 47.8093L518.277 46.0032ZM508.51 41.9778C505.172 40.8116 501.877 40.2227 498.629 40.2227V42.2227C501.631 42.2227 504.703 42.7665 507.85 43.8659L508.51 41.9778ZM538.766 113H537.766V114H538.766V113ZM538.766 27.3359V26.3359H537.766V27.3359H538.766ZM556.93 27.3359H557.93V26.3359H556.93V27.3359ZM556.93 113V114H557.93V113H556.93ZM539.766 113V27.3359H537.766V113H539.766ZM538.766 28.3359L556.93 28.3359V26.3359L538.766 26.3359V28.3359ZM555.93 27.3359V113H557.93V27.3359H555.93ZM556.93 112H538.766V114H556.93V112ZM578.492 113H577.492V114H578.492V113ZM578.492 27.3359V26.3359H577.492V27.3359H578.492ZM596.656 27.3359H597.656V26.3359H596.656V27.3359ZM596.656 98H595.656V99H596.656V98ZM631.402 98H632.402V97H631.402V98ZM631.402 113V114H632.402V113H631.402ZM579.492 113V27.3359H577.492V113H579.492ZM578.492 28.3359L596.656 28.3359V26.3359L578.492 26.3359V28.3359ZM595.656 27.3359V98H597.656V27.3359H595.656ZM596.656 99H631.402V97H596.656V99ZM630.402 98V113H632.402V98H630.402ZM631.402 112H578.492V114H631.402V112ZM695.68 113V114H696.68V113H695.68ZM646.344 113H645.344V114H646.344V113ZM646.344 27.3359V26.3359H645.344V27.3359H646.344ZM695.68 27.3359L696.68 27.3359V26.3359L695.68 26.3359V27.3359ZM695.68 42.2187V43.2187H696.68V42.2187H695.68ZM664.508 42.2187V41.2187H663.508V42.2187H664.508ZM664.508 61.0273H663.508V62.0273H664.508V61.0273ZM693.512 61.0273H694.512V60.0273H693.512V61.0273ZM693.512 75.9102V76.9102H694.512V75.9102H693.512ZM664.508 75.9102V74.9102H663.508V75.9102H664.508ZM664.508 98H663.508V99H664.508V98ZM695.68 98H696.68V97H695.68V98ZM695.68 112L646.344 112V114L695.68 114V112ZM647.344 113V27.3359H645.344V113H647.344ZM646.344 28.3359L695.68 28.3359V26.3359L646.344 26.3359V28.3359ZM694.68 27.3359V42.2187H696.68V27.3359L694.68 27.3359ZM695.68 41.2187L664.508 41.2187V43.2187L695.68 43.2187V41.2187ZM663.508 42.2187V61.0273H665.508V42.2187H663.508ZM664.508 62.0273L693.512 62.0273V60.0273L664.508 60.0273V62.0273ZM692.512 61.0273V75.9102H694.512V61.0273H692.512ZM693.512 74.9102H664.508V76.9102H693.512V74.9102ZM663.508 75.9102V98H665.508V75.9102H663.508ZM664.508 99H695.68V97H664.508V99ZM694.68 98V113H696.68V98H694.68Z" fill="#D9D9D9"/>
</svg>
