<svg width="1062" height="220" viewBox="0 0 1062 220" fill="none" xmlns="http://www.w3.org/2000/svg">
<path opacity="0.3" d="M237.059 40.3633H236.059V41.3633H237.059V40.3633ZM255.516 19.7969L254.989 20.6469L254.994 20.6502L255.516 19.7969ZM237.059 17.2187V16.2187H236.059V17.2187H237.059ZM237.059 55.1289V54.1289H236.059V55.1289H237.059ZM237.059 88V89H238.059V88H237.059ZM218.895 88H217.895V89H218.895V88ZM218.895 2.33594V1.33594H217.895V2.33594H218.895ZM269.695 8.72266L269.089 9.51797L269.093 9.52064L269.695 8.72266ZM273.914 41.4766L274.729 42.0555L274.732 42.0517L273.914 41.4766ZM262.137 50.6758L261.735 49.7599L260.641 50.2395L261.306 51.232L262.137 50.6758ZM287.332 88V89H289.244L288.153 87.4296L287.332 88ZM267.176 88L266.327 88.5282L266.62 89H267.176V88ZM246.727 55.1289L247.576 54.6007L247.282 54.1289H246.727V55.1289ZM237.059 41.3633H242.918V39.3633H237.059V41.3633ZM242.918 41.3633C248.734 41.3633 253.221 40.401 256.206 38.3114L255.059 36.673C252.576 38.4115 248.587 39.3633 242.918 39.3633V41.3633ZM256.206 38.3114C259.27 36.1666 260.734 32.8123 260.734 28.4687H258.734C258.734 32.3284 257.464 34.9897 255.059 36.673L256.206 38.3114ZM260.734 28.4687C260.734 24.1517 259.219 20.8881 256.037 18.9436L254.994 20.6502C257.437 22.1432 258.734 24.6608 258.734 28.4687H260.734ZM256.042 18.9469C253.029 17.0795 248.484 16.2187 242.566 16.2187V18.2187C248.368 18.2187 252.455 19.0768 254.989 20.6469L256.042 18.9469ZM242.566 16.2187H237.059V18.2187H242.566V16.2187ZM236.059 17.2187V40.3633H238.059V17.2187H236.059ZM236.059 55.1289L236.059 88H238.059L238.059 55.1289H236.059ZM237.059 87H218.895V89H237.059V87ZM219.895 88L219.895 2.33594H217.895L217.895 88H219.895ZM218.895 3.33594L243.855 3.33594V1.33594L218.895 1.33594V3.33594ZM243.855 3.33594C255.409 3.33594 263.759 5.45517 269.089 9.51796L270.302 7.92735C264.46 3.47451 255.584 1.33594 243.855 1.33594V3.33594ZM269.093 9.52064C274.37 13.5062 277.074 19.5994 277.074 28L279.074 28C279.074 19.135 276.193 12.3766 270.298 7.92467L269.093 9.52064ZM277.074 28C277.074 32.843 275.746 37.1324 273.096 40.9015L274.732 42.0517C277.629 37.9301 279.074 33.2351 279.074 28L277.074 28ZM273.099 40.8976C270.446 44.6342 266.674 47.5945 261.735 49.7599L262.538 51.5916C267.756 49.3039 271.836 46.1314 274.729 42.0555L273.099 40.8976ZM261.306 51.232C274.195 70.488 282.599 82.937 286.511 88.5704L288.153 87.4296C284.253 81.813 275.86 69.3792 262.968 50.1195L261.306 51.232ZM287.332 87H267.176V89H287.332V87ZM268.025 87.4718L247.576 54.6007L245.877 55.6571L266.327 88.5282L268.025 87.4718ZM246.727 54.1289H237.059V56.1289H246.727V54.1289ZM347.449 88V89H348.449V88H347.449ZM298.113 88H297.113V89H298.113V88ZM298.113 2.33594V1.33594H297.113V2.33594H298.113ZM347.449 2.33594H348.449V1.33594H347.449V2.33594ZM347.449 17.2187V18.2187H348.449V17.2187H347.449ZM316.277 17.2187V16.2187H315.277V17.2187H316.277ZM316.277 36.0273H315.277V37.0273H316.277V36.0273ZM345.281 36.0273H346.281V35.0273H345.281V36.0273ZM345.281 50.9102V51.9102H346.281V50.9102H345.281ZM316.277 50.9102V49.9102H315.277V50.9102H316.277ZM316.277 73H315.277V74H316.277V73ZM347.449 73H348.449V72H347.449V73ZM347.449 87L298.113 87V89L347.449 89V87ZM299.113 88V2.33594H297.113V88H299.113ZM298.113 3.33594L347.449 3.33594V1.33594L298.113 1.33594V3.33594ZM346.449 2.33594V17.2187H348.449V2.33594H346.449ZM347.449 16.2187L316.277 16.2187V18.2187L347.449 18.2187V16.2187ZM315.277 17.2187V36.0273H317.277V17.2187H315.277ZM316.277 37.0273L345.281 37.0273V35.0273L316.277 35.0273V37.0273ZM344.281 36.0273V50.9102H346.281V36.0273H344.281ZM345.281 49.9102H316.277V51.9102H345.281V49.9102ZM315.277 50.9102V73H317.277V50.9102H315.277ZM316.277 74H347.449V72H316.277V74ZM346.449 73V88H348.449V73H346.449ZM345.691 111.906H344.691V112.663L345.42 112.869L345.691 111.906ZM345.691 96.7891L345.934 95.8189L344.691 95.5083V96.7891H345.691ZM362.801 94.2109L361.981 93.6383L361.977 93.6444L362.801 94.2109ZM365.379 2.33594V1.33594H364.379V2.33594H365.379ZM383.543 2.33594H384.543V1.33594H383.543V2.33594ZM356.414 112.195C352.379 112.195 348.9 111.772 345.963 110.944L345.42 112.869C348.577 113.759 352.246 114.195 356.414 114.195V112.195ZM346.691 111.906V96.7891H344.691V111.906H346.691ZM345.449 97.7592C348.634 98.5556 351.569 98.9609 354.246 98.9609V96.9609C351.767 96.9609 348.998 96.585 345.934 95.8189L345.449 97.7592ZM354.246 98.9609C358.445 98.9609 361.663 97.6311 363.625 94.7775L361.977 93.6444C360.501 95.7908 358.015 96.9609 354.246 96.9609V98.9609ZM363.621 94.7835C365.516 92.0696 366.379 87.9509 366.379 82.6094H364.379C364.379 87.8148 363.523 91.4304 361.981 93.6384L363.621 94.7835ZM366.379 82.6094V2.33594H364.379V82.6094H366.379ZM365.379 3.33594L383.543 3.33594V1.33594L365.379 1.33594V3.33594ZM382.543 2.33594V82.4922H384.543V2.33594H382.543ZM382.543 82.4922C382.543 92.3549 380.288 99.6996 375.934 104.686L377.441 106.001C382.228 100.519 384.543 92.6295 384.543 82.4922H382.543ZM375.934 104.686C371.605 109.644 365.159 112.195 356.414 112.195V114.195C365.559 114.195 372.629 111.512 377.441 106.001L375.934 104.686ZM411.844 12.2969L411.114 11.6128L411.114 11.6129L411.844 12.2969ZM472.371 12.3555L471.634 13.0315L471.636 13.0336L472.371 12.3555ZM425.848 23.4297L426.645 24.0338L426.647 24.0307L425.848 23.4297ZM481.859 45.0508C481.859 59.0726 478.384 69.6942 471.578 77.0678L473.047 78.4244C480.303 70.5636 483.859 59.3883 483.859 45.0508H481.859ZM471.578 77.0678C464.783 84.4282 455.003 88.1719 442.078 88.1719V90.1719C455.403 90.1719 465.779 86.2983 473.047 78.4244L471.578 77.0678ZM442.078 88.1719C429.153 88.1719 419.373 84.4282 412.579 77.0678L411.109 78.4244C418.377 86.2983 428.753 90.1719 442.078 90.1719V88.1719ZM412.579 77.0678C405.773 69.6951 402.297 59.0353 402.297 44.9336H400.297C400.297 59.3475 403.852 70.5627 411.109 78.4244L412.579 77.0678ZM402.297 44.9336C402.297 30.8307 405.773 20.234 412.573 12.9808L411.114 11.6129C403.852 19.3598 400.297 30.5209 400.297 44.9336H402.297ZM412.573 12.9809C419.406 5.69531 429.227 1.98828 442.195 1.98828V-0.0117188C428.835 -0.0117188 418.422 3.82031 411.114 11.6128L412.573 12.9809ZM442.195 1.98828C455.163 1.98828 464.92 5.71414 471.634 13.0315L473.108 11.6794C465.916 3.84055 455.556 -0.0117188 442.195 -0.0117188V1.98828ZM471.636 13.0336C478.402 20.3668 481.859 30.9873 481.859 45.0508H483.859C483.859 30.6768 480.324 19.5004 473.106 11.6773L471.636 13.0336ZM419.34 45.0508C419.34 54.7205 421.17 62.1804 424.989 67.2719L426.589 66.0719C423.142 61.4759 421.34 54.5216 421.34 45.0508H419.34ZM424.989 67.2719C428.848 72.4177 434.605 74.9375 442.078 74.9375V72.9375C435.098 72.9375 429.995 70.6136 426.589 66.0719L424.989 67.2719ZM442.078 74.9375C449.567 74.9375 455.33 72.4347 459.181 67.3171C462.992 62.2531 464.816 54.7764 464.816 45.0508H462.816C462.816 54.583 461.018 61.5497 457.583 66.1145C454.188 70.6259 449.081 72.9375 442.078 72.9375V74.9375ZM464.816 45.0508C464.816 35.3068 463.002 27.8167 459.212 22.7434C455.382 17.6152 449.648 15.1055 442.195 15.1055V17.1055C449.157 17.1055 454.233 19.42 457.61 23.9402C461.027 28.5153 462.816 35.4979 462.816 45.0508H464.816ZM442.195 15.1055C434.719 15.1055 428.945 17.647 425.048 22.8287L426.647 24.0307C430.094 19.4468 435.218 17.1055 442.195 17.1055V15.1055ZM425.051 22.8256C421.191 27.9177 419.34 35.3793 419.34 45.0508H421.34C421.34 35.5816 423.161 28.6292 426.645 24.0338L425.051 22.8256ZM500.613 88H499.613V89H500.613V88ZM500.613 2.33594V1.33594H499.613V2.33594H500.613ZM518.777 2.33594H519.777V1.33594H518.777V2.33594ZM518.777 88V89H519.777V88H518.777ZM501.613 88V2.33594H499.613V88H501.613ZM500.613 3.33594L518.777 3.33594V1.33594L500.613 1.33594V3.33594ZM517.777 2.33594V88H519.777V2.33594H517.777ZM518.777 87H500.613V89H518.777V87ZM572.859 39.8945V38.8945H571.859V39.8945H572.859ZM606.844 39.8945H607.844V38.8945H606.844V39.8945ZM606.844 84.3086L607.154 85.2593L607.844 85.0342V84.3086H606.844ZM591.258 88.0586L591.115 87.0688L591.106 87.0701L591.258 88.0586ZM546.727 77.8047L545.98 78.4705L545.984 78.4745L546.727 77.8047ZM548.367 12.707L547.669 11.9912L547.667 11.9929L548.367 12.707ZM606.727 6.37891L607.65 6.76246L608.029 5.85085L607.122 5.46045L606.727 6.37891ZM600.691 20.9102L600.244 21.8046L601.204 22.2843L601.615 21.2937L600.691 20.9102ZM560.906 66.7305L560.114 67.3405L560.119 67.3475L560.906 66.7305ZM589.09 72.8828L589.286 73.8634L590.09 73.7026V72.8828H589.09ZM589.09 55.0117H590.09V54.0117H589.09V55.0117ZM572.859 55.0117H571.859V56.0117H572.859V55.0117ZM572.859 40.8945H606.844V38.8945L572.859 38.8945V40.8945ZM605.844 39.8945V84.3086H607.844V39.8945H605.844ZM606.534 83.3579C601.071 85.1399 595.932 86.3751 591.115 87.0688L591.4 89.0484C596.349 88.3358 601.601 87.071 607.154 85.2593L606.534 83.3579ZM591.106 87.0701C586.315 87.8044 581.404 88.1719 576.375 88.1719V90.1719C581.502 90.1719 586.514 89.7972 591.409 89.0471L591.106 87.0701ZM576.375 88.1719C563.648 88.1719 554.067 84.4495 547.469 77.1349L545.984 78.4745C553.058 86.3161 563.243 90.1719 576.375 90.1719V88.1719ZM547.473 77.1389C540.894 69.766 537.531 59.1204 537.531 45.0508H535.531C535.531 59.4186 538.966 70.609 545.98 78.4705L547.473 77.1389ZM537.531 45.0508C537.531 31.4198 541.414 20.9227 549.067 13.4212L547.667 11.9929C539.539 19.9601 535.531 31.0256 535.531 45.0508H537.531ZM549.065 13.4229C556.762 5.91584 567.462 2.10547 581.297 2.10547V0.105469C567.085 0.105469 555.832 4.02948 547.669 11.9912L549.065 13.4229ZM581.297 2.10547C589.948 2.10547 598.29 3.83491 606.331 7.29737L607.122 5.46045C598.835 1.89165 590.224 0.105469 581.297 0.105469V2.10547ZM605.803 5.99535L599.768 20.5266L601.615 21.2937L607.65 6.76246L605.803 5.99535ZM601.139 20.0157C594.755 16.8237 588.098 15.2227 581.18 15.2227V17.2227C587.777 17.2227 594.128 18.7466 600.244 21.8046L601.139 20.0157ZM581.18 15.2227C573.078 15.2227 566.506 17.9559 561.568 23.4654L563.057 24.8003C567.572 19.7628 573.578 17.2227 581.18 17.2227V15.2227ZM561.568 23.4654C556.638 28.966 554.223 36.3156 554.223 45.4023H556.223C556.223 36.6766 558.534 29.8465 563.057 24.8003L561.568 23.4654ZM554.223 45.4023C554.223 54.8153 556.138 62.1758 560.114 67.3405L561.699 66.1205C558.096 61.4413 556.223 54.5831 556.223 45.4023H554.223ZM560.119 67.3475C564.171 72.515 570.033 75.0547 577.547 75.0547V73.0547C570.529 73.0547 565.298 70.7116 561.693 66.1135L560.119 67.3475ZM577.547 75.0547C581.405 75.0547 585.318 74.6569 589.286 73.8634L588.894 71.9022C585.049 72.6712 581.267 73.0547 577.547 73.0547V75.0547ZM590.09 72.8828V55.0117H588.09V72.8828H590.09ZM589.09 54.0117H572.859V56.0117H589.09V54.0117ZM573.859 55.0117V39.8945H571.859V55.0117H573.859ZM703.289 88V89H704.289V88H703.289ZM680.203 88L679.336 88.4985L679.625 89H680.203V88ZM642.938 23.1953L643.804 22.6968L643.516 22.1953H642.938V23.1953ZM642.41 23.1953V22.1953H641.343L641.412 23.26L642.41 23.1953ZM643.523 88V89H644.523V88H643.523ZM627.293 88H626.293V89H627.293V88ZM627.293 2.33594V1.33594H626.293V2.33594H627.293ZM650.203 2.33594L651.068 1.83428L650.779 1.33594H650.203V2.33594ZM687.41 66.4961L686.545 66.9977L686.834 67.4961H687.41V66.4961ZM687.82 66.4961V67.4961H688.874L688.819 66.4435L687.82 66.4961ZM686.941 2.33594V1.33594H685.941V2.33594H686.941ZM703.289 2.33594H704.289V1.33594H703.289V2.33594ZM703.289 87H680.203V89H703.289V87ZM681.07 87.5015L643.804 22.6968L642.071 23.6938L679.336 88.4985L681.07 87.5015ZM642.938 22.1953H642.41V24.1953H642.938V22.1953ZM641.412 23.26C642.154 34.7047 642.523 42.8402 642.523 47.6875H644.523C644.523 42.7692 644.15 34.5766 643.408 23.1306L641.412 23.26ZM642.523 47.6875V88H644.523V47.6875H642.523ZM643.523 87H627.293V89H643.523V87ZM628.293 88V2.33594H626.293V88H628.293ZM627.293 3.33594L650.203 3.33594V1.33594L627.293 1.33594V3.33594ZM649.338 2.8376L686.545 66.9977L688.275 65.9944L651.068 1.83428L649.338 2.8376ZM687.41 67.4961H687.82V65.4961H687.41V67.4961ZM688.819 66.4435C688.233 55.3107 687.941 47.4631 687.941 42.8828H685.941C685.941 47.5212 686.236 55.4159 686.822 66.5487L688.819 66.4435ZM687.941 42.8828V2.33594H685.941V42.8828H687.941ZM686.941 3.33594H703.289V1.33594H686.941V3.33594ZM702.289 2.33594V88H704.289V2.33594H702.289ZM774.246 88V89H775.246V88H774.246ZM724.91 88H723.91V89H724.91V88ZM724.91 2.33594V1.33594H723.91V2.33594H724.91ZM774.246 2.33594L775.246 2.33594V1.33594L774.246 1.33594V2.33594ZM774.246 17.2187V18.2187H775.246V17.2187H774.246ZM743.074 17.2187V16.2187H742.074V17.2187H743.074ZM743.074 36.0273H742.074V37.0273H743.074V36.0273ZM772.078 36.0273H773.078V35.0273H772.078V36.0273ZM772.078 50.9102V51.9102H773.078V50.9102H772.078ZM743.074 50.9102V49.9102H742.074V50.9102H743.074ZM743.074 73H742.074V74H743.074V73ZM774.246 73H775.246V72H774.246V73ZM774.246 87L724.91 87V89L774.246 89V87ZM725.91 88V2.33594H723.91V88H725.91ZM724.91 3.33594L774.246 3.33594V1.33594L724.91 1.33594V3.33594ZM773.246 2.33594V17.2187H775.246V2.33594L773.246 2.33594ZM774.246 16.2187L743.074 16.2187V18.2187L774.246 18.2187V16.2187ZM742.074 17.2187V36.0273H744.074V17.2187H742.074ZM743.074 37.0273L772.078 37.0273V35.0273L743.074 35.0273V37.0273ZM771.078 36.0273V50.9102H773.078V36.0273H771.078ZM772.078 49.9102H743.074V51.9102H772.078V49.9102ZM742.074 50.9102V73H744.074V50.9102H742.074ZM743.074 74H774.246V72H743.074V74ZM773.246 73V88H775.246V73H773.246ZM848.016 88V89H849.016V88H848.016ZM784.266 88H783.266V89H784.266V88ZM784.266 76.2227L783.445 75.6506L783.266 75.9084V76.2227H784.266ZM825.34 17.3359L826.16 17.908L827.257 16.3359H825.34V17.3359ZM785.379 17.3359H784.379V18.3359H785.379V17.3359ZM785.379 2.33594V1.33594H784.379V2.33594H785.379ZM846.902 2.33594H847.902V1.33594H846.902V2.33594ZM846.902 14.0547L847.723 14.6258L847.902 14.3684V14.0547H846.902ZM805.887 73L805.066 72.4288L803.973 74H805.887V73ZM848.016 73H849.016V72H848.016V73ZM848.016 87L784.266 87V89L848.016 89V87ZM785.266 88V76.2227H783.266V88H785.266ZM785.086 76.7947L826.16 17.908L824.52 16.7638L783.445 75.6506L785.086 76.7947ZM825.34 16.3359L785.379 16.3359V18.3359L825.34 18.3359V16.3359ZM786.379 17.3359V2.33594H784.379V17.3359H786.379ZM785.379 3.33594L846.902 3.33594V1.33594L785.379 1.33594V3.33594ZM845.902 2.33594V14.0547H847.902V2.33594H845.902ZM846.081 13.4835L805.066 72.4288L806.708 73.5712L847.723 14.6258L846.081 13.4835ZM805.887 74L848.016 74V72L805.887 72V74ZM847.016 73V88H849.016V73H847.016ZM0.808594 218H-0.191406V219H0.808594V218ZM0.808594 132.336V131.336H-0.191406V132.336H0.808594ZM18.9727 132.336H19.9727V131.336H18.9727V132.336ZM18.9727 203H17.9727V204H18.9727V203ZM53.7188 203H54.7188V202H53.7188V203ZM53.7188 218V219H54.7188V218H53.7188ZM1.80859 218L1.80859 132.336H-0.191406L-0.191406 218H1.80859ZM0.808594 133.336H18.9727V131.336H0.808594V133.336ZM17.9727 132.336L17.9727 203H19.9727L19.9727 132.336H17.9727ZM18.9727 204H53.7188V202H18.9727V204ZM52.7188 203V218H54.7188V203H52.7188ZM53.7188 217H0.808594V219H53.7188V217ZM121.102 218L120.145 218.291L120.361 219H121.102V218ZM114.891 197.609L115.847 197.318L115.631 196.609H114.891L114.891 197.609ZM83.6602 197.609L83.6602 196.609H82.9194L82.7036 197.318L83.6602 197.609ZM77.4492 218V219H78.19L78.4058 218.291L77.4492 218ZM57.8789 218L56.9355 217.668L56.4674 219H57.8789V218ZM88.1133 131.984V130.984H87.4048L87.1699 131.653L88.1133 131.984ZM110.32 131.984L111.263 131.652L111.028 130.984H110.32V131.984ZM140.672 218V219H142.085L141.615 217.667L140.672 218ZM110.555 182.375V183.375H111.913L111.51 182.078L110.555 182.375ZM100.828 151.027L99.8678 151.306L99.8698 151.313L99.872 151.32L100.828 151.027ZM99.3047 145.285L100.281 145.068L98.3363 145.036L99.3047 145.285ZM88.2305 182.375L87.275 182.08L86.8749 183.375H88.2305V182.375ZM122.058 217.709L115.847 197.318L113.934 197.901L120.145 218.291L122.058 217.709ZM114.891 196.609H83.6602L83.6602 198.609H114.891L114.891 196.609ZM82.7036 197.318L76.4926 217.709L78.4058 218.291L84.6168 197.901L82.7036 197.318ZM77.4492 217H57.8789V219H77.4492V217ZM58.8223 218.332L89.0567 132.316L87.1699 131.653L56.9355 217.668L58.8223 218.332ZM88.1133 132.984H110.32V130.984H88.1133V132.984ZM109.377 132.317L139.729 218.333L141.615 217.667L111.263 131.652L109.377 132.317ZM140.672 217H121.102V219H140.672V217ZM111.51 182.078C105.767 163.6 102.526 153.154 101.784 150.734L99.872 151.32C100.615 153.745 103.858 164.197 109.6 182.672L111.51 182.078ZM101.788 150.749C101.088 148.334 100.587 146.444 100.281 145.068L98.3285 145.502C98.6478 146.939 99.1624 148.877 99.8678 151.306L101.788 150.749ZM98.3363 145.036C97.0545 150.007 93.3714 162.345 87.275 182.08L89.1859 182.67C95.2771 162.952 98.9767 150.563 100.273 145.535L98.3363 145.036ZM88.2305 183.375H110.555V181.375H88.2305V183.375ZM203.191 153.957L203.998 154.548L204 154.545L203.191 153.957ZM240.926 199.543H241.926V198.131L240.594 198.6L240.926 199.543ZM240.926 214.777L241.31 215.7L241.926 215.444V214.777H240.926ZM188.777 207.863L188.023 208.52L188.025 208.522L188.777 207.863ZM183.738 151.906L184.638 152.343L184.639 152.341L183.738 151.906ZM197.684 136.496L198.19 137.358L198.192 137.357L197.684 136.496ZM244.148 137.141L245.078 137.509L245.422 136.642L244.58 136.239L244.148 137.141ZM238.289 151.906L237.86 152.809L238.824 153.268L239.219 152.275L238.289 151.906ZM219.07 145.223C211.941 145.223 206.336 147.933 202.383 153.369L204 154.545C207.547 149.669 212.527 147.223 219.07 147.223V145.223ZM202.385 153.366C198.464 158.716 196.566 166.101 196.566 175.402H198.566C198.566 166.344 200.419 159.432 203.998 154.548L202.385 153.366ZM196.566 175.402C196.566 185.049 198.371 192.467 202.143 197.492C205.954 202.571 211.659 205.055 219.07 205.055V203.055C212.146 203.055 207.098 200.763 203.742 196.291C200.345 191.765 198.566 184.857 198.566 175.402H196.566ZM219.07 205.055C225.241 205.055 232.645 203.515 241.257 200.486L240.594 198.6C232.097 201.587 224.931 203.055 219.07 203.055V205.055ZM239.926 199.543V214.777H241.926V199.543H239.926ZM240.541 213.854C233.648 216.727 225.929 218.172 217.371 218.172V220.172C226.157 220.172 234.142 218.687 241.31 215.7L240.541 213.854ZM217.371 218.172C205.122 218.172 195.897 214.475 189.53 207.204L188.025 208.522C194.861 216.329 204.698 220.172 217.371 220.172V218.172ZM189.531 207.206C183.143 199.872 179.875 189.282 179.875 175.285H177.875C177.875 189.57 181.209 200.698 188.023 208.52L189.531 207.206ZM179.875 175.285C179.875 166.5 181.474 158.862 184.638 152.343L182.839 151.47C179.519 158.31 177.875 166.257 177.875 175.285H179.875ZM184.639 152.341C187.801 145.789 192.317 140.806 198.19 137.358L197.177 135.634C190.941 139.295 186.16 144.586 182.838 151.472L184.639 152.341ZM198.192 137.357C204.109 133.868 211.057 132.105 219.07 132.105V130.105C210.756 130.105 203.446 131.937 197.176 135.635L198.192 137.357ZM219.07 132.105C227.224 132.105 235.437 134.076 243.716 138.042L244.58 136.239C236.063 132.158 227.557 130.105 219.07 130.105V132.105ZM243.219 136.772L237.36 151.537L239.219 152.275L245.078 137.509L243.219 136.772ZM238.719 151.003C235.484 149.465 232.228 148.123 228.951 146.978L228.291 148.866C231.498 149.986 234.688 151.301 237.86 152.809L238.719 151.003ZM228.951 146.978C225.613 145.812 222.318 145.223 219.07 145.223V147.223C222.072 147.223 225.145 147.766 228.291 148.866L228.951 146.978ZM265.945 142.297L265.216 141.613L265.216 141.613L265.945 142.297ZM326.473 142.355L325.736 143.032L325.738 143.034L326.473 142.355ZM279.949 153.43L280.746 154.034L280.748 154.031L279.949 153.43ZM335.961 175.051C335.961 189.073 332.486 199.694 325.679 207.068L327.149 208.424C334.405 200.564 337.961 189.388 337.961 175.051H335.961ZM325.679 207.068C318.885 214.428 309.105 218.172 296.18 218.172V220.172C309.505 220.172 319.881 216.298 327.149 208.424L325.679 207.068ZM296.18 218.172C283.255 218.172 273.474 214.428 266.68 207.068L265.211 208.424C272.479 216.298 282.855 220.172 296.18 220.172V218.172ZM266.68 207.068C259.875 199.695 256.398 189.035 256.398 174.934L254.398 174.934C254.398 189.348 257.954 200.563 265.211 208.424L266.68 207.068ZM256.398 174.934C256.398 160.831 259.875 150.234 266.675 142.981L265.216 141.613C257.953 149.36 254.398 160.521 254.398 174.934L256.398 174.934ZM266.675 142.981C273.507 135.695 283.329 131.988 296.297 131.988V129.988C282.937 129.988 272.524 133.82 265.216 141.613L266.675 142.981ZM296.297 131.988C309.264 131.988 319.022 135.714 325.736 143.032L327.21 141.679C320.017 133.841 309.658 129.988 296.297 129.988V131.988ZM325.738 143.034C332.504 150.367 335.961 160.987 335.961 175.051H337.961C337.961 160.677 334.426 149.5 327.208 141.677L325.738 143.034ZM273.441 175.051C273.441 184.721 275.272 192.18 279.091 197.272L280.691 196.072C277.244 191.476 275.441 184.522 275.441 175.051H273.441ZM279.091 197.272C282.95 202.418 288.707 204.937 296.18 204.937V202.937C289.199 202.937 284.097 200.614 280.691 196.072L279.091 197.272ZM296.18 204.937C303.669 204.937 309.431 202.435 313.282 197.317C317.093 192.253 318.918 184.776 318.918 175.051H316.918C316.918 184.583 315.12 191.55 311.684 196.115C308.289 200.626 303.183 202.937 296.18 202.937V204.937ZM318.918 175.051C318.918 165.307 317.103 157.817 313.314 152.743C309.483 147.615 303.749 145.105 296.297 145.105V147.105C303.258 147.105 308.335 149.42 311.712 153.94C315.129 158.515 316.918 165.498 316.918 175.051H318.918ZM296.297 145.105C288.821 145.105 283.047 147.647 279.15 152.829L280.748 154.031C284.196 149.447 289.32 147.105 296.297 147.105V145.105ZM279.152 152.826C275.292 157.918 273.441 165.379 273.441 175.051H275.441C275.441 165.582 277.263 158.629 280.746 154.034L279.152 152.826ZM390.984 218L390.028 218.293L390.245 219H390.984V218ZM370.359 150.793L371.315 150.5L371.099 149.793H370.359V150.793ZM369.832 150.793V149.793H368.776L368.833 150.847L369.832 150.793ZM370.945 218V219H371.945V218H370.945ZM354.715 218H353.715V219H354.715V218ZM354.715 132.336V131.336H353.715V132.336H354.715ZM379.441 132.336L380.397 132.04L380.179 131.336H379.441V132.336ZM399.715 197.844L398.76 198.139L398.978 198.844H399.715V197.844ZM400.066 197.844V198.844H400.791L401.017 198.156L400.066 197.844ZM421.57 132.336V131.336H420.846L420.62 132.024L421.57 132.336ZM446.297 132.336H447.297V131.336H446.297V132.336ZM446.297 218V219H447.297V218H446.297ZM429.363 218H428.363V219H429.363V218ZM429.422 170.832L428.422 170.801L428.422 170.809L428.422 170.816L429.422 170.832ZM430.242 150.91L431.241 150.954L431.287 149.91H430.242V150.91ZM429.715 150.91V149.91H428.991L428.765 150.597L429.715 150.91ZM407.625 218V219H408.349L408.575 218.313L407.625 218ZM391.94 217.707L371.315 150.5L369.403 151.086L390.028 218.293L391.94 217.707ZM370.359 149.793H369.832V151.793H370.359V149.793ZM368.833 150.847C369.576 164.524 369.945 173.618 369.945 178.156H371.945C371.945 173.554 371.573 164.406 370.831 150.739L368.833 150.847ZM369.945 178.156V218H371.945V178.156H369.945ZM370.945 217H354.715V219H370.945V217ZM355.715 218L355.715 132.336H353.715L353.715 218H355.715ZM354.715 133.336H379.441V131.336H354.715V133.336ZM378.486 132.632L398.76 198.139L400.67 197.548L380.397 132.04L378.486 132.632ZM399.715 198.844H400.066V196.844H399.715V198.844ZM401.017 198.156L422.52 132.648L420.62 132.024L399.116 197.532L401.017 198.156ZM421.57 133.336L446.297 133.336V131.336L421.57 131.336V133.336ZM445.297 132.336L445.297 218H447.297L447.297 132.336H445.297ZM446.297 217L429.363 217V219L446.297 219V217ZM430.363 218V177.453H428.363V218H430.363ZM430.363 177.453C430.363 175.546 430.383 173.344 430.422 170.848L428.422 170.816C428.383 173.32 428.363 175.533 428.363 177.453H430.363ZM430.421 170.863C430.499 168.371 430.772 161.737 431.241 150.954L429.243 150.867C428.775 161.645 428.501 168.293 428.422 170.801L430.421 170.863ZM430.242 149.91H429.715V151.91H430.242V149.91ZM428.765 150.597L406.675 217.687L408.575 218.313L430.665 151.223L428.765 150.597ZM407.625 217H390.984V219H407.625V217ZM504.188 218L503.232 218.293L503.448 219H504.188V218ZM483.562 150.793L484.518 150.5L484.302 149.793H483.562V150.793ZM483.035 150.793V149.793H481.979L482.037 150.847L483.035 150.793ZM484.148 218V219H485.148V218H484.148ZM467.918 218H466.918V219H467.918V218ZM467.918 132.336V131.336H466.918V132.336H467.918ZM492.645 132.336L493.6 132.04L493.382 131.336H492.645V132.336ZM512.918 197.844L511.963 198.139L512.181 198.844H512.918V197.844ZM513.27 197.844V198.844H513.994L514.22 198.156L513.27 197.844ZM534.773 132.336V131.336H534.049L533.823 132.024L534.773 132.336ZM559.5 132.336H560.5V131.336H559.5V132.336ZM559.5 218V219H560.5V218H559.5ZM542.566 218H541.566V219H542.566V218ZM542.625 170.832L541.625 170.801L541.625 170.809L541.625 170.816L542.625 170.832ZM543.445 150.91L544.444 150.954L544.49 149.91H543.445V150.91ZM542.918 150.91V149.91H542.194L541.968 150.597L542.918 150.91ZM520.828 218V219H521.552L521.778 218.313L520.828 218ZM505.143 217.707L484.518 150.5L482.607 151.086L503.232 218.293L505.143 217.707ZM483.562 149.793H483.035V151.793H483.562V149.793ZM482.037 150.847C482.779 164.524 483.148 173.618 483.148 178.156H485.148C485.148 173.554 484.776 164.406 484.034 150.739L482.037 150.847ZM483.148 178.156V218H485.148V178.156H483.148ZM484.148 217H467.918V219H484.148V217ZM468.918 218L468.918 132.336H466.918L466.918 218H468.918ZM467.918 133.336H492.645V131.336H467.918V133.336ZM491.689 132.632L511.963 198.139L513.873 197.548L493.6 132.04L491.689 132.632ZM512.918 198.844H513.27V196.844H512.918V198.844ZM514.22 198.156L535.724 132.648L533.823 132.024L512.319 197.532L514.22 198.156ZM534.773 133.336H559.5V131.336H534.773V133.336ZM558.5 132.336V218H560.5V132.336H558.5ZM559.5 217H542.566V219H559.5V217ZM543.566 218V177.453H541.566V218H543.566ZM543.566 177.453C543.566 175.546 543.586 173.344 543.625 170.848L541.625 170.816C541.586 173.32 541.566 175.533 541.566 177.453H543.566ZM543.625 170.863C543.702 168.371 543.976 161.737 544.444 150.954L542.446 150.867C541.978 161.645 541.704 168.293 541.625 170.801L543.625 170.863ZM543.445 149.91H542.918V151.91H543.445V149.91ZM541.968 150.597L519.878 217.687L521.778 218.313L543.868 151.223L541.968 150.597ZM520.828 217H504.188V219H520.828V217ZM650.848 132.336H651.848V131.336H650.848V132.336ZM646.57 204.406L645.712 203.893L645.709 203.898L646.57 204.406ZM589.676 210.734L588.995 211.467L588.997 211.469L589.676 210.734ZM580.535 132.336V131.336H579.535V132.336H580.535ZM598.641 132.336H599.641V131.336H598.641V132.336ZM628.699 199.309L627.942 198.655L627.941 198.656L628.699 199.309ZM632.742 132.336V131.336H631.742V132.336H632.742ZM649.848 132.336V187.766H651.848V132.336H649.848ZM649.848 187.766C649.848 193.939 648.459 199.303 645.712 203.893L647.428 204.92C650.385 199.978 651.848 194.249 651.848 187.766H649.848ZM645.709 203.898C643.005 208.479 639.08 212 633.896 214.46L634.753 216.267C640.271 213.648 644.51 209.864 647.432 204.915L645.709 203.898ZM633.896 214.46C628.706 216.922 622.53 218.172 615.34 218.172V220.172C622.759 220.172 629.24 218.882 634.753 216.267L633.896 214.46ZM615.34 218.172C604.491 218.172 596.209 215.404 590.354 210L588.997 211.469C595.33 217.314 604.157 220.172 615.34 220.172V218.172ZM590.357 210.002C584.503 204.561 581.535 197.112 581.535 187.531H579.535C579.535 197.56 582.661 205.58 588.995 211.467L590.357 210.002ZM581.535 187.531V132.336H579.535V187.531H581.535ZM580.535 133.336H598.641V131.336H580.535V133.336ZM597.641 132.336V184.777H599.641V132.336H597.641ZM597.641 184.777C597.641 191.479 598.983 196.61 601.867 199.961L603.383 198.656C600.955 195.835 599.641 191.279 599.641 184.777H597.641ZM601.867 199.961C604.793 203.36 609.534 204.937 615.809 204.937V202.937C609.818 202.937 605.77 201.429 603.383 198.656L601.867 199.961ZM615.809 204.937C621.901 204.937 626.537 203.354 629.457 199.961L627.941 198.656C625.549 201.436 621.591 202.937 615.809 202.937V204.937ZM629.456 199.962C632.379 196.573 633.742 191.403 633.742 184.66H631.742C631.742 191.198 630.41 195.794 627.942 198.655L629.456 199.962ZM633.742 184.66V132.336H631.742V184.66H633.742ZM632.742 133.336H650.848V131.336H632.742V133.336ZM747.82 218V219H748.82V218H747.82ZM724.734 218L723.867 218.499L724.156 219H724.734V218ZM687.469 153.195L688.336 152.697L688.047 152.195H687.469V153.195ZM686.941 153.195V152.195H685.874L685.943 153.26L686.941 153.195ZM688.055 218V219H689.055V218H688.055ZM671.824 218H670.824V219H671.824V218ZM671.824 132.336V131.336H670.824V132.336H671.824ZM694.734 132.336L695.599 131.834L695.31 131.336H694.734V132.336ZM731.941 196.496L731.076 196.998L731.365 197.496H731.941V196.496ZM732.352 196.496V197.496H733.406L733.35 196.444L732.352 196.496ZM731.473 132.336V131.336H730.473V132.336H731.473ZM747.82 132.336H748.82V131.336H747.82V132.336ZM747.82 217H724.734V219H747.82V217ZM725.601 217.501L688.336 152.697L686.602 153.694L723.867 218.499L725.601 217.501ZM687.469 152.195H686.941V154.195H687.469V152.195ZM685.943 153.26C686.686 164.705 687.055 172.84 687.055 177.687H689.055C689.055 172.769 688.682 164.577 687.939 153.131L685.943 153.26ZM687.055 177.687V218H689.055V177.687H687.055ZM688.055 217H671.824V219H688.055V217ZM672.824 218V132.336H670.824V218H672.824ZM671.824 133.336H694.734V131.336H671.824V133.336ZM693.869 132.838L731.076 196.998L732.806 195.994L695.599 131.834L693.869 132.838ZM731.941 197.496H732.352V195.496H731.941V197.496ZM733.35 196.444C732.764 185.311 732.473 177.463 732.473 172.883H730.473C730.473 177.521 730.767 185.416 731.353 196.549L733.35 196.444ZM732.473 172.883V132.336H730.473V172.883H732.473ZM731.473 133.336H747.82V131.336H731.473V133.336ZM746.82 132.336V218H748.82V132.336H746.82ZM821.883 218L820.926 218.291L821.142 219H821.883V218ZM815.672 197.609L816.628 197.318L816.413 196.609H815.672V197.609ZM784.441 197.609V196.609H783.701L783.485 197.318L784.441 197.609ZM778.23 218V219H778.971L779.187 218.291L778.23 218ZM758.66 218L757.717 217.668L757.249 219H758.66V218ZM788.895 131.984V130.984H788.186L787.951 131.653L788.895 131.984ZM811.102 131.984L812.045 131.652L811.809 130.984H811.102V131.984ZM841.453 218V219H842.866L842.396 217.667L841.453 218ZM811.336 182.375V183.375H812.694L812.291 182.078L811.336 182.375ZM801.609 151.027L800.649 151.306L800.651 151.313L800.653 151.32L801.609 151.027ZM800.086 145.285L801.062 145.068L799.118 145.036L800.086 145.285ZM789.012 182.375L788.056 182.08L787.656 183.375H789.012V182.375ZM822.839 217.709L816.628 197.318L814.715 197.901L820.926 218.291L822.839 217.709ZM815.672 196.609L784.441 196.609V198.609L815.672 198.609V196.609ZM783.485 197.318L777.274 217.709L779.187 218.291L785.398 197.901L783.485 197.318ZM778.23 217H758.66V219H778.23V217ZM759.604 218.332L789.838 132.316L787.951 131.653L757.717 217.668L759.604 218.332ZM788.895 132.984H811.102V130.984H788.895V132.984ZM810.159 132.317L840.51 218.333L842.396 217.667L812.045 131.652L810.159 132.317ZM841.453 217H821.883V219H841.453V217ZM812.291 182.078C806.548 163.6 803.307 153.154 802.565 150.734L800.653 151.32C801.396 153.745 804.639 164.197 810.381 182.672L812.291 182.078ZM802.57 150.749C801.869 148.334 801.368 146.444 801.062 145.068L799.11 145.502C799.429 146.939 799.944 148.877 800.649 151.306L802.57 150.749ZM799.118 145.036C797.836 150.007 794.153 162.345 788.056 182.08L789.967 182.67C796.058 162.952 799.758 150.563 801.054 145.535L799.118 145.036ZM789.012 183.375H811.336V181.375H789.012V183.375ZM922.02 132.336H923.02V131.336H922.02V132.336ZM917.742 204.406L916.884 203.893L916.881 203.898L917.742 204.406ZM860.848 210.734L860.167 211.467L860.169 211.469L860.848 210.734ZM851.707 132.336V131.336H850.707V132.336H851.707ZM869.812 132.336H870.812V131.336H869.812V132.336ZM899.871 199.309L899.114 198.655L899.113 198.656L899.871 199.309ZM903.914 132.336V131.336H902.914V132.336H903.914ZM921.02 132.336V187.766H923.02V132.336H921.02ZM921.02 187.766C921.02 193.939 919.63 199.303 916.884 203.893L918.6 204.92C921.557 199.978 923.02 194.249 923.02 187.766H921.02ZM916.881 203.898C914.177 208.479 910.252 212 905.067 214.46L905.925 216.267C911.443 213.648 915.682 209.864 918.603 204.915L916.881 203.898ZM905.067 214.46C899.877 216.922 893.702 218.172 886.512 218.172V220.172C893.931 220.172 900.412 218.882 905.925 216.267L905.067 214.46ZM886.512 218.172C875.663 218.172 867.381 215.404 861.526 210L860.169 211.469C866.502 217.314 875.329 220.172 886.512 220.172V218.172ZM861.528 210.002C855.675 204.561 852.707 197.112 852.707 187.531H850.707C850.707 197.56 853.833 205.58 860.167 211.467L861.528 210.002ZM852.707 187.531V132.336H850.707V187.531H852.707ZM851.707 133.336H869.812V131.336H851.707V133.336ZM868.812 132.336V184.777H870.812V132.336H868.812ZM868.812 184.777C868.812 191.479 870.155 196.61 873.039 199.961L874.555 198.656C872.126 195.835 870.812 191.279 870.812 184.777H868.812ZM873.039 199.961C875.965 203.36 880.705 204.937 886.98 204.937V202.937C880.99 202.937 876.942 201.429 874.555 198.656L873.039 199.961ZM886.98 204.937C893.073 204.937 897.709 203.354 900.629 199.961L899.113 198.656C896.721 201.436 892.763 202.937 886.98 202.937V204.937ZM900.628 199.962C903.551 196.573 904.914 191.403 904.914 184.66H902.914C902.914 191.198 901.582 195.794 899.114 198.655L900.628 199.962ZM904.914 184.66V132.336H902.914V184.66H904.914ZM903.914 133.336H922.02V131.336H903.914V133.336ZM976.043 218V219H977.043V218H976.043ZM957.879 218H956.879V219H957.879V218ZM957.879 147.453H958.879V146.453H957.879V147.453ZM934.617 147.453H933.617V148.453H934.617V147.453ZM934.617 132.336V131.336H933.617V132.336H934.617ZM999.305 132.336H1000.3V131.336H999.305V132.336ZM999.305 147.453V148.453H1000.3V147.453H999.305ZM976.043 147.453V146.453H975.043V147.453H976.043ZM976.043 217L957.879 217V219L976.043 219V217ZM958.879 218V147.453H956.879V218H958.879ZM957.879 146.453H934.617V148.453H957.879V146.453ZM935.617 147.453V132.336H933.617V147.453H935.617ZM934.617 133.336L999.305 133.336V131.336L934.617 131.336V133.336ZM998.305 132.336V147.453H1000.3V132.336H998.305ZM999.305 146.453H976.043V148.453H999.305V146.453ZM975.043 147.453V218H977.043V147.453H975.043ZM1061.82 218V219H1062.82V218H1061.82ZM1012.49 218H1011.49V219H1012.49V218ZM1012.49 132.336V131.336H1011.49V132.336H1012.49ZM1061.82 132.336H1062.82V131.336H1061.82V132.336ZM1061.82 147.219V148.219H1062.82V147.219H1061.82ZM1030.65 147.219V146.219H1029.65V147.219H1030.65ZM1030.65 166.027H1029.65V167.027H1030.65V166.027ZM1059.66 166.027H1060.66V165.027H1059.66V166.027ZM1059.66 180.91V181.91H1060.66V180.91H1059.66ZM1030.65 180.91V179.91H1029.65V180.91H1030.65ZM1030.65 203H1029.65V204H1030.65V203ZM1061.82 203H1062.82V202H1061.82V203ZM1026.55 125.48H1025.55V126.48H1026.55V125.48ZM1026.55 123.898L1025.79 123.246L1025.55 123.528V123.898H1026.55ZM1040.32 106.262V105.262H1039.77L1039.47 105.732L1040.32 106.262ZM1060.36 106.262H1061.36V105.262H1060.36V106.262ZM1060.36 107.492L1061.07 108.199L1061.36 107.906V107.492H1060.36ZM1049.93 116.574L1050.56 117.349L1050.56 117.348L1049.93 116.574ZM1038.45 125.48V126.48H1038.76L1039.02 126.298L1038.45 125.48ZM1061.82 217H1012.49V219H1061.82V217ZM1013.49 218V132.336H1011.49V218H1013.49ZM1012.49 133.336H1061.82V131.336H1012.49V133.336ZM1060.82 132.336V147.219H1062.82V132.336H1060.82ZM1061.82 146.219H1030.65V148.219H1061.82V146.219ZM1029.65 147.219V166.027H1031.65V147.219H1029.65ZM1030.65 167.027H1059.66V165.027H1030.65V167.027ZM1058.66 166.027V180.91H1060.66V166.027H1058.66ZM1059.66 179.91H1030.65V181.91H1059.66V179.91ZM1029.65 180.91V203H1031.65V180.91H1029.65ZM1030.65 204H1061.82V202H1030.65V204ZM1060.82 203V218H1062.82V203H1060.82ZM1027.55 125.48V123.898H1025.55V125.48H1027.55ZM1027.31 124.55C1034.03 116.734 1038.66 110.806 1041.17 106.791L1039.47 105.732C1037.05 109.608 1032.51 115.438 1025.79 123.246L1027.31 124.55ZM1040.32 107.262H1060.36V105.262H1040.32V107.262ZM1059.36 106.262V107.492H1061.36V106.262H1059.36ZM1059.65 106.785C1057.66 108.778 1054.22 111.779 1049.3 115.8L1050.56 117.348C1055.49 113.323 1059 110.269 1061.07 108.199L1059.65 106.785ZM1049.3 115.799C1044.42 119.779 1040.61 122.73 1037.87 124.663L1039.02 126.298C1041.82 124.324 1045.67 121.338 1050.56 117.349L1049.3 115.799ZM1038.45 124.48H1026.55V126.48H1038.45V124.48Z" fill="#D9D9D9"/>
</svg>
